<?xml version="1.0" standalone="no"?>
<!DOCTYPE svg PUBLIC "-//W3C//DTD SVG 1.1//EN" "http://www.w3.org/Graphics/SVG/1.1/DTD/svg11.dtd" >
<svg xmlns="http://www.w3.org/2000/svg">
<metadata></metadata>
<defs>
<font id="vitamin_outlinedregular" horiz-adv-x="1021" >
<font-face units-per-em="2048" ascent="1638" descent="-410" />
<missing-glyph horiz-adv-x="1024" />
<glyph horiz-adv-x="2048" />
<glyph horiz-adv-x="2048" />
<glyph unicode="&#xd;" horiz-adv-x="1024" />
<glyph unicode=" "  horiz-adv-x="1024" />
<glyph unicode="&#x09;" horiz-adv-x="1024" />
<glyph unicode="&#xa0;" horiz-adv-x="1024" />
<glyph unicode="!" horiz-adv-x="774" d="M139 1055q0 113 17 178l53 211q4 16 93 89t112.5 78t64.5 5q389 0 389 -258q0 -125 -104 -537q-119 -469 -215 -516q-37 -18 -92 -18q-203 0 -285 428q-33 170 -33 340zM190 -59q0 14 17 92q31 145 102 196q63 45 215 45q301 0 301 -311q0 -121 -87 -212t-206 -91 q-133 0 -182 18q-70 29 -119 127q-41 80 -41 136zM242 1016q0 -127 28 -277q31 -168 82 -260q33 -61 58 -80q14 -10 47 -10q27 0 49 12q66 82 166 482q94 377 94 475q0 86 -88 127q-68 33 -164 33q-45 0 -82 -9q-61 -63 -129 -108q-61 -246 -61 -385zM293 -59 q0 -33 27.5 -89.5t53 -73t158.5 -16.5q76 0 133.5 62.5t57.5 138.5q0 209 -199 209q-131 0 -170 -39q-29 -29 -57 -162q-4 -18 -4 -30z" />
<glyph unicode="&#x22;" horiz-adv-x="987" d="M27 1393q0 35 68.5 110.5t105.5 87.5q31 10 102 11q109 0 183.5 -78t74.5 -187q0 -158 -63 -299q-80 -178 -224 -178q-57 0 -104 33q-53 37 -53 92q0 35 26.5 89t26.5 69q0 10 -71.5 108.5t-71.5 141.5zM131 1386q12 -25 82 -116q59 -78 59 -127q0 -35 -26.5 -88.5 t-26.5 -69.5q16 -23 55 -22q90 0 144 151q41 117 41 223q0 66 -45 114t-111 48q-27 0 -72 -6q-59 -45 -96 -100zM463 1432q0 61 62.5 135.5t123.5 74.5l10 -2q211 -43 304 -106q145 -102 145 -301q0 -174 -96 -311q-111 -160 -293 -160q-88 0 -145.5 57.5t-57.5 145.5 q0 63 29 145q27 68 53 137l-14 13q-121 104 -121 172zM565 1430q10 -23 84 -91q63 -57 56 -90q-6 -27 -52 -141q-35 -90 -35 -143q1 -101 101 -101q131 0 213 123q74 109 74 246q0 143 -101 215q-78 55 -258 90q-18 -4 -50 -47t-32 -61z" />
<glyph unicode="#" horiz-adv-x="1488" d="M39 924q0 209 227 209q33 0 70 -7q-14 109 -14 152q0 223 282 223q88 0 119 -57q18 -33 27.5 -130t29.5 -136q25 2 25 49q0 14 -4 43.5t-4 44.5q0 170 96 237q80 57 256 58q178 0 178 -121q0 -35 -50 -141.5t-50 -128.5q0 -6 2 -11q14 -6 102 23q96 31 121 31 q137 0 137 -140q0 -51 -22 -131q-27 -96 -64 -112q-31 -6 -135 -31l-8 -2q86 14 108 14q29 0 77 -29.5t48 -56.5q2 -156 -26 -209q-35 -68 -162 -116q-41 -16 -41 -35q0 -33 18.5 -95.5t18.5 -95.5q0 -125 -72 -166q-51 -29 -203 -28q-111 0 -164 43t-59 149l-12 180 q-27 -2 -41 -4l2 -4q8 -51 8 -100q0 -150 -58.5 -209t-205.5 -59q-166 0 -197 112q-10 113 -22 228q-121 -12 -137 -13q-72 0 -119 47t-47 119q0 150 100 180q98 14 199 27l-2 6q0 6 -4 12l-140 13q-188 16 -188 168zM141 924q0 -53 72 -66q45 -2 137 -8q82 -6 96 -37 q33 -68 33 -108q0 -57 -73 -74l-166 -21q-35 -4 -45 -18q-18 -18 -19 -74q0 -63 64 -63q27 0 80 6t77 6q57 0 76 -55q10 -27 12 -103q4 -125 7 -127q16 -55 104 -55q109 0 135.5 29.5t26.5 136.5q0 25 -4 71t-4 68q0 49 71 66q55 4 111 10q66 6 65 -152q0 -135 7 -155 q23 -70 122 -70q96 0 162 27q10 31 10 65q0 33 -18 95.5t-18 95.5q0 80 59 108q37 16 113 51q59 39 59 132v36l-10 4q-6 2 -21 13q-135 -12 -131 -13q-90 0 -129 95q-4 10 -4 20q0 51 107 78q47 10 141 31q41 81 41 153q0 37 -35 37q-31 0 -105.5 -27.5t-111.5 -27.5 q-47 0 -80 35t-33 82t51.5 144t51.5 124v6q-12 12 -76 12q-133 0 -182 -28q-68 -41 -68 -164q0 14 2 -47v-45q0 -147 -131 -148q-80 0 -106 129q-8 39 -31 191h-8q-12 4 -21 4q-180 0 -180 -121q0 -41 22 -205q8 -57 -57 -57q-25 0 -71 7t-70 7q-106 0 -107 -106zM672 748 q0 43 12 88q16 59 45 69q27 23 57.5 48.5t59.5 25.5q25 0 47 -16q64 -48 68 -107q2 -18 -3 -51q-4 -39 -4 -53q0 -111 -182 -111q-100 0 -100 107zM774 743q68 0 80 13q0 104 2 100q-4 6 -12 14l-2 -4q-16 -14 -51 -43q-16 -45 -17 -75v-5z" />
<glyph unicode="$" horiz-adv-x="1208" d="M74 25q0 6 10 55l22 -53q-10 37 -10 75q0 80 40 135.5t118 55.5q55 0 258 -39q4 14 4 22q29 -6 25 -38v-7q-406 86 -406 414q0 113 70 227.5t172 149.5q-37 106 -37 139q0 82 80 137q72 49 158 50q109 0 147 -74q27 -51 23 -170q86 10 122 10q262 0 263 -235 q0 -96 -13 -134q-23 -70 -96 -75q-55 -2 -170 -11q2 -20 4 -38l256 -33q131 -29 176 -150q31 -78 31 -243q0 -274 -461 -396q-16 -217 -100 -217q-106 0 -201 56q-113 63 -113 161q0 27 5 56q-160 -61 -215 -62q-109 0 -132 117q-31 47 -30 115zM162 111q23 -12 22 -35 q0 -8 -4 -25.5t-4 -25.5q0 -25 19 -74q23 -55 41 -55q41 0 136 36.5t148 36.5q49 0 49 -51q0 -20 -10 -61t-10 -58q0 -47 72 -75q25 -10 114 -31q10 18 21 112q8 76 43 84q420 101 420 306q0 143 -27 204q-41 90 -162 105q-78 6 -231 22q-41 4 -47 74q0 35 -4 102 q-4 53 92 66q90 2 182 6q8 39 8 105q0 80 -38 106.5t-122 26.5q-25 0 -75 -8.5t-76 -8.5q-78 0 -76 52q4 147 -12 184q-35 14 -53 14q-39 0 -84 -22q-51 -25 -52 -62q0 -23 22.5 -85t22.5 -93q0 -51 -47 -53q-80 -2 -143 -107q-59 -94 -59 -178q0 -143 98 -221 q51 -41 184 -82q98 -31 98 -66q0 -43 -18 -83q-25 -53 -61 -48q-4 0 -142 29q-80 16 -143 16q-55 0 -92 -79zM367 639q0 51 49 88t102 37q94 0 94 -172q0 -20 -15 -44t-36 -24q-66 0 -123 25q-71 33 -71 90zM508 635q33 -8 53 -8q0 -35 -51 -35v33zM735 242q6 123 92 123 q53 0 102.5 -37t49.5 -88t-68 -86q-51 -25 -114 -31q-47 -4 -60 41q-6 20 -2 78zM788 225q19 3 50 13q-2 -39 0 -60q-47 -4 -50 47z" />
<glyph unicode="'" horiz-adv-x="692" d="M121 1464q0 14 6 29q29 90 127 135q80 39 186 39q160 0 252 -72q100 -80 101 -235q0 -164 -121 -289t-285 -125q-70 0 -109.5 28t-39.5 73q0 51 43 127.5t43 93.5q-31 8 -54 18q-53 20 -98 72q-51 55 -51 106zM227 1473q16 -55 113 -105q86 -43 86 -100q0 -49 -39 -113 q-43 -69 -47 -98l2 -2q18 -6 45 -6q121 0 212 95t91 216q0 205 -250 205q-166 0 -213 -92z" />
<glyph unicode="(" horiz-adv-x="915" d="M43 461q0 283 133 534q106 203 356 412q39 45 152 127q27 12 43 12q106 0 197 -53q109 -61 108 -160q0 -139 -94 -250q-59 -70 -187 -152.5t-159 -113.5q-80 -78 -80 -170q0 -90 123 -178q78 -51 229 -156q123 -90 123 -192q0 -125 -128 -235.5t-255 -110.5 q-266 0 -424 227q-137 197 -137 459zM145 461q0 -227 113 -393q129 -190 346 -191q82 0 181.5 82t99.5 162q0 55 -123 139q-203 137 -230 162q-123 109 -122 225q0 123 92 221q53 58 190 148q121 80 168 133q70 80 70 184q0 49 -82 82q-68 27 -123 27l-12 -6 q-35 -47 -117 -109q-96 -70 -125 -100q-326 -338 -326 -766z" />
<glyph unicode=")" horiz-adv-x="894" d="M10 1196q0 109 111 180q92 59 190 60q45 0 140 -82q260 -178 405 -441q147 -268 148 -577q0 -274 -150 -465q-162 -209 -428 -209q-119 0 -243 114.5t-124 231.5q0 102 121 191q78 51 228 157q123 94 122 219q0 82 -135 179l-250 178q-135 121 -135 264zM113 1196 q0 -119 135 -217q84 -55 250 -174q135 -102 135 -230q0 -143 -123 -264q-41 -41 -227 -166q-121 -82 -121 -137q0 -74 95 -159t169 -85q223 0 354 181q121 162 121 391q0 250 -119 498q-125 260 -323 395q-45 25 -125 94l-15 4l-12 6q-61 -2 -123 -39q-72 -43 -71 -98z" />
<glyph unicode="*" horiz-adv-x="925" d="M324 602q0 88 31.5 137t109.5 82q70 27 137 51q25 12 47 13q23 0 121 -35t123 -49q86 -53 86 -193q0 -106 -63.5 -186t-167.5 -80q-133 0 -252 49q-172 72 -172 211zM426 602q0 -80 127 -125q97 -33 195 -33q61 0 96 54q33 47 33 110t-17.5 87t-77.5 42q-143 45 -131 45 q-12 -6 -35 -16q-66 -23 -131 -47q-59 -33 -59 -117z" />
<glyph unicode="+" horiz-adv-x="1224" d="M121 602q0 117 44 164t157 47h59q84 -2 63 -2v4q-8 57 -8 68q0 33 -11 96t-11 96q0 111 118 174q94 51 218 51q88 0 136 -50t48 -138q0 -39 -11.5 -118t-11.5 -117q0 -35 7 -46q20 0 61 6.5t61 6.5q131 0 218.5 -81t87.5 -212q0 -106 -119 -135q-100 -12 -201 -23l-6 -2 q6 -41 53 -131q43 -80 43 -139q0 -66 -22 -86q-78 -70 -200 -123t-232 -53h-7q-104 0 -145 110q-25 66 -27 197q-2 119 -16 135q-16 0 -51 -3t-54 -3q-242 0 -241 307zM223 602q0 -205 140 -205t163 -12q51 -29 58 -160q0 -20 8 -153q14 -100 74 -111q76 0 182 45 q98 41 164 94q2 12 2 21q0 45 -49.5 140t-49.5 147q0 66 84 84q68 6 138 10q106 14 106 49q0 86 -57.5 138t-145.5 52q-20 0 -62 -4t-63 -4q-106 0 -106 144q0 39 11 117.5t11 117.5q0 86 -81 86q-72 0 -142 -27q-92 -35 -92 -96q0 -33 11.5 -96.5t11.5 -95.5q0 -16 4 -50 t4 -51q0 -74 -94 -73q-23 0 -66 4t-65 4q-98 0 -99 -115z" />
<glyph unicode="," horiz-adv-x="743" d="M104 90q0 106 142 170q78 35 176 35q158 0 252 -74q102 -82 102 -235q0 -164 -122 -289t-285 -125q-68 0 -108 27.5t-40 74.5q0 51 42 127t42 93q-14 4 -53 18q-51 20 -96 72q-51 57 -52 106zM211 100q18 -66 113 -106q84 -37 84 -100q0 -45 -41 -115.5t-43 -95.5l2 -2 q16 -6 43 -7q121 0 213 94.5t92 217.5q0 207 -252 207q-164 0 -211 -93z" />
<glyph unicode="-" d="M127 637q0 90 28.5 127t116.5 67.5t238 67.5q170 41 229 41q150 0 244 -99.5t94 -250.5q0 -109 -66 -179.5t-175 -70.5q-27 0 -80.5 9t-79.5 9q-49 0 -144.5 -22.5t-144.5 -22.5q-186 0 -213 131q-47 80 -47 193zM229 637q0 -18 11.5 -74.5t19.5 -64.5q12 -27 27 -54 q23 -29 100 -28q49 0 144.5 22.5t144.5 22.5q27 0 80 -9.5t80 -9.5q139 0 139 148q0 106 -64.5 177t-171.5 71q-59 0 -252.5 -49t-242.5 -78q-14 -33 -15 -74z" />
<glyph unicode="." horiz-adv-x="704" d="M152 -129q0 166 141 219q47 16 137 53q31 12 49 13q23 0 122 -35t122 -49q84 -51 84 -193q0 -109 -59 -184q-66 -84 -173 -84q-132 0 -251 49q-172 72 -172 211zM254 -129q0 -80 127 -125q96 -33 194 -33q61 0 97 56q33 47 33 110q0 61 -17.5 86t-77.5 43 q-143 45 -131 45q-12 -6 -35 -16q-66 -23 -131 -47q-59 -35 -59 -119z" />
<glyph unicode="0" horiz-adv-x="1486" d="M100 340q0 223 242 455.5t465 232.5q297 0 516 -164q246 -184 246 -483q0 -231 -125 -383q-136 -162 -363 -162q-319 0 -598 101q-383 137 -383 403zM203 340q0 -211 356 -322q256 -79 522 -79q182 0 289 133q96 121 96 309q0 252 -209 405q-190 139 -450 140 q-182 0 -393 -203t-211 -383zM727 410q0 74 43 133q47 68 117 71q8 0 20 2q41 20 64 21q80 0 129 -92q37 -70 37 -135q0 -205 -230 -205q-76 0 -128 63.5t-52 141.5zM829 410q0 -33 24 -68t54 -35q127 0 127 103q0 29 -19 77t-44 48q-27 -14 -86 -23q-23 -10 -39.5 -43 t-16.5 -59z" />
<glyph unicode="1" horiz-adv-x="1015" d="M18 612q0 170 336 297q270 102 463 103q233 0 234 -291v-262q0 -305 -95 -434q-117 -162 -426 -162q-113 0 -112 233v101q0 118 -23 157q-23 -2 -72 -21.5t-77 -19.5q-59 0 -131 49q-88 59 -74 140q-23 55 -23 110zM121 612q0 -12 14 -63q14 -43 10 -57q-10 -23 35 -52 q39 -25 66 -24q25 0 79 21.5t81 21.5q117 0 116 -303v-64q0 -14 -2 -33v-20q0 -64 10 -74q252 0 342 121q76 102 76 373v262q0 188 -131 188t-385 -84q-311 -102 -311 -213z" />
<glyph unicode="2" horiz-adv-x="1355" d="M86 924q0 201 297 299q207 68 459 67q186 0 321 -112q145 -121 146 -304q0 -88 -119 -176q-64 -43 -193 -133q125 35 193 35q129 0 207 -127q63 -104 63 -221q0 -84 -231 -201q-174 -88 -449 -176q-236 -76 -291 -76q-160 0 -269 107.5t-109 265.5q0 193 96 307 q63 76 221 158q182 94 254 156q-16 18 -37 18q-51 0 -170 -54.5t-186 -54.5q-86 0 -144.5 67t-58.5 155zM188 924q0 -43 29 -81t72 -38q51 0 170 54t186 54q45 0 99.5 -43t54.5 -86q0 -20 -19 -39q-66 -63 -233.5 -152t-231.5 -155q-102 -104 -102 -266q0 -115 81 -192.5 t195 -77.5q84 0 441 135q377 143 428 219q-2 84 -43 156q-47 86 -125 86q-106 0 -322 -80q-16 -6 -26 -6q-45 0 -45 45q0 84 135 186q78 53 155 109q119 88 119 122q0 139 -114 230q-106 84 -250 84q-190 0 -381 -51q-272 -74 -273 -213z" />
<glyph unicode="3" horiz-adv-x="1210" d="M35 164q0 104 111.5 212.5t215.5 108.5q45 0 123 -73q96 -92 117 -103q51 0 106.5 46t55.5 96q0 82 -16 104q-8 2 -19 2q-41 0 -143.5 -50t-143.5 -50q-20 0 -34 10q-117 78 -117 178q0 76 69 131q80 64 86 80q-356 0 -358 94q-4 109 18 201q27 113 84 149q49 33 166 33 q156 0 334 -35q274 -53 275 -157q0 -51 -68 -187q199 -82 307 -268q100 -172 101 -397q0 -201 -230 -389q-219 -178 -426 -179q-137 0 -211 37l-184 99l-12 8q-43 39 -99 100q-109 119 -108 199zM137 164q0 -63 170 -219q143 -80 162 -88q76 -33 180 -33q164 0 355 149 q199 158 198 316q0 209 -96 360q-102 164 -293 225q-31 10 -31 46q0 37 39 114.5t41 100.5q-49 41 -250 71q-162 25 -256 25q-61 0 -100 -12q-72 -104 -68 -236q59 -23 179 -25h180q55 0 55 -32q0 -33 -57 -101q-14 -41 -83 -99t-69 -81q0 -41 56 -82q27 4 137 53 q102 45 155 46q125 0 125 -211q0 -92 -87 -169t-181 -77q-47 0 -125 76q-96 94 -113 102q-61 0 -142 -79t-81 -140z" />
<glyph unicode="4" horiz-adv-x="1327" d="M10 494q0 162 51 401q66 305 160 371q61 43 170 43q127 0 176 -140q27 -76 33 -239q18 27 33 90q12 49 22 98q80 297 375 297q92 0 129 -33.5t37 -124.5q0 -43 -26.5 -139t-26.5 -143q0 -25 8 -37q12 -2 75.5 16.5t86.5 18.5q39 0 84 -27q53 -31 51 -69 q-20 -276 -62 -353q-23 -41 -88 -61q-86 -29 -106 -41q-49 -33 -49 -113q0 -59 15.5 -176t15.5 -176q0 -137 -115 -203q-90 -51 -238 -51q-199 0 -198 428q2 34 8 227q-246 -133 -365 -133q-51 0 -153.5 107.5t-102.5 161.5zM113 494q10 -41 170 -166q121 14 352 151 q10 6 24 6q29 0 52.5 -33.5t23.5 -64.5q0 -41 -4 -123t-4 -123q0 -336 94 -336q250 0 250 152q0 59 -15.5 176t-15.5 176q0 141 90 195q82 35 166 69q34 58 50 285q-18 12 -33 12q-25 0 -83.5 -15t-86.5 -15q-109 0 -103 151q2 43 28 131t26 135q0 16 -4 33l-5 17 q-18 6 -55 6q-176 0 -246 -135q-25 -84 -73 -250q-41 -131 -162 -123q-43 2 -47 47q-2 68 -13 205q-16 150 -98 149q-72 0 -104 -20q-82 -113 -131 -332q-43 -190 -43 -360z" />
<glyph unicode="5" horiz-adv-x="1263" d="M-2 727q0 203 4 242q16 156 90 209q109 78 424 155q289 72 430 72q88 0 133 -96q37 -76 37 -174q0 -102 -41 -127q-18 -10 -140 -24.5t-169 -29.5q-84 -27 -88 -82q209 72 295 72q168 0 285.5 -115.5t117.5 -283.5q0 -256 -172 -438.5t-426 -182.5q-168 0 -362 90 q-233 109 -234 256q0 76 105 152q94 68 159 67q29 0 77 -23.5t67 -23.5q10 2 10 13q0 27 -43 59q-59 0 -171 -31.5t-171 -31.5q-109 0 -168 88q-49 74 -49 188zM100 727q0 -174 115 -174q57 0 170 31.5t172 31.5q63 0 100 -48t37 -113q0 -115 -100 -115q-37 0 -76 16l-72 31 q-33 0 -97 -45t-64 -72q0 -94 204 -174q176 -70 289 -69q211 0 355 155q141 150 141 363q0 125 -88 211t-213 86q-55 0 -165 -39t-165 -39q-70 0 -70 98q0 147 162 191l273 41q10 209 -62 209q-117 0 -416 -72q-336 -82 -401 -156q-29 -113 -29 -348z" />
<glyph unicode="6" horiz-adv-x="1245" d="M43 483q0 180 96 406q92 217 219 354q164 176 349 176q82 0 163.5 -72.5t81.5 -154.5q0 -109 -90 -172q-43 -23 -170 -80q-92 -43 -92 -102l-72 45q59 31 154 65q168 63 281 64q100 0 198 -80q88 -72 137 -170l2 -10q47 -236 48 -263q0 -256 -209 -430 q-199 -163 -459 -163q-184 0 -369 102q-223 123 -231 311q-37 61 -37 174zM145 483q0 -37 18.5 -93t18.5 -64q-2 -131 174 -234q162 -94 324 -94q215 0 385 135q180 145 180 356q0 66 -43 232q-35 70 -98 125q-74 63 -141 63q-137 0 -392 -118q-12 -6 -28 -7q-47 0 -47 64 q0 115 143 180q25 10 133 57q78 43 78 107q0 37 -52.5 81t-90.5 44q-207 0 -392 -307q-170 -283 -170 -527zM453 563q0 82 18 101q70 69 199 69q78 0 139 -80t61 -159q0 -68 -64.5 -131.5t-131.5 -63.5q-25 0 -74 33q-80 53 -104 86q-43 55 -43 145zM555 563q0 -53 27 -88 q16 -18 73 -57q6 -4 23 -17q25 0 57.5 34t32.5 59q0 35 -32.5 86t-65.5 51q-63 0 -113 -29q-2 -27 -2 -39z" />
<glyph unicode="7" horiz-adv-x="1075" d="M51 774q0 70 10 164l25 39q25 45 51 88q31 53 62 82q176 162 610 162q395 0 395 -232q0 -111 -158.5 -342t-158.5 -338q0 -88 65.5 -254t65.5 -254q0 -109 -109 -176q-90 -55 -184 -55q-152 0 -309 80q-201 102 -201 260q0 156 98 315q68 98 199 297q114 174 139 303 q-61 -6 -82 -39q-14 -25 -14 -88v-20q2 -18 2 -33v-55q0 -82 -100 -121q-72 -29 -170 -29q-111 0 -173.5 67t-62.5 179zM154 774q0 -143 133 -143q41 0 94 10q74 14 74 37v55q0 14 -2 33v20q0 227 223 232q25 0 54.5 -26.5t27.5 -51.5q-12 -147 -127 -328 q-70 -104 -207 -317q-106 -172 -107 -297q0 -100 160 -176q133 -61 248 -62q63 0 121 33q70 39 69 96q0 74 -65.5 245t-65.5 263q0 133 103 287q59 84 172 256q43 70 43 137q0 129 -293 129q-494 0 -610 -231q-16 -33 -37 -68q-8 -76 -8 -133z" />
<glyph unicode="8" horiz-adv-x="1320" d="M27 117q0 225 96 385q55 92 254 295q-6 27 -31 94q-23 59 -22 96q0 147 104 242.5t252 95.5q225 0 342 -53q172 -78 172 -281q0 -43 -14.5 -129t-14.5 -129q0 -45 70 -123q98 -111 129 -157q72 -109 72 -211q0 -254 -273 -410q-223 -127 -475 -127q-242 0 -424 84 q-238 111 -237 328zM129 117q0 -168 211 -250q151 -60 348 -60q225 0 424 115q221 127 221 320q0 92 -71 180q-43 49 -129 151q-70 84 -70 160q0 43 14.5 129t14.5 129q0 150 -144 201q-84 31 -268 31q-106 0 -180 -65.5t-74 -170.5q0 -29 27.5 -99.5t27.5 -105.5 q0 -27 -14 -41q-201 -203 -242 -268q-96 -150 -96 -356zM698 874q0 172 103 173q68 0 108 -64q35 -55 35 -127q0 -66 -31 -121q-37 -67 -96 -67q-61 0 -94 77q-25 59 -25 129zM723 254q0 66 25 143q33 100 83 109q10 2 43 12q28 10 44 10q84 0 166.5 -99t82.5 -183 q0 -80 -106 -133q-88 -45 -178 -45q-160 0 -160 186zM801 874q0 -63 20 -100q20 45 21 82q0 66 -33 84q-8 -51 -8 -66zM825 254q0 -84 58 -84q37 0 104 23q78 27 78 53q0 41 -54 110.5t-93 69.5l-41 -14l-9 -2q-43 -59 -43 -156z" />
<glyph unicode="9" horiz-adv-x="1265" d="M102 698q0 250 111 385q121 152 365 152q303 0 526 -150q260 -174 260 -481q0 -350 -229.5 -568t-581.5 -218q-143 0 -279 69q-166 86 -165 215q0 27 18 78t39 60q6 2 67 59q41 37 125 37q35 0 100.5 -22.5t98.5 -22.5q14 0 29 8v6q-20 20 -170 50t-209 77 q-104 82 -105 266zM205 698q0 -154 98 -206q35 -18 205 -50q188 -33 188 -141q0 -47 -45 -80t-94 -33q-35 0 -100.5 22.5t-98.5 22.5q-43 0 -71 -26q-43 -39 -58 -49l-8 -27q-2 -8 -10 -29q0 -80 137 -135q115 -47 205 -47q311 0 510 187.5t199 496.5q0 258 -222 404 q-193 125 -462 125q-373 0 -373 -435zM596 696q0 59 25 101q29 51 84 51q66 0 104 -53q33 -49 33 -117q0 -55 -39 -90t-94 -35q-113 0 -113 143zM698 696q0 -29 4 -39q4 -2 7 -2q31 0 30 23q1 59 -30 67q-10 -18 -11 -49z" />
<glyph unicode=":" horiz-adv-x="720" d="M113 768q0 166 141 219q47 16 137 53q31 12 49 13q23 0 122.5 -35t121.5 -49q84 -53 84 -193q0 -109 -59 -184q-66 -84 -172 -84q-133 0 -252 49q-172 72 -172 211zM172 289q0 55 57 149q68 109 140 101q84 -10 127 -11q104 0 186 -45q100 -55 100 -151q0 -141 -127 -226 q-104 -69 -239 -69q-115 0 -179.5 67.5t-64.5 184.5zM215 768q0 -78 127 -123q99 -35 195 -35q61 0 98 54q31 47 31 112q0 61 -17.5 86t-75.5 43q-143 45 -133 45q-12 -6 -34 -16q-66 -23 -132 -47q-59 -35 -59 -119zM274 289q1 -150 142 -150q94 0 172 47q92 57 92 146 q0 47 -72 74q-55 20 -111.5 20t-140.5 10q-82 -96 -82 -147z" />
<glyph unicode=";" horiz-adv-x="663" d="M66 754q0 100 90 176q78 68 184 84q8 2 14 4q33 27 60 26q125 0 207 -106q76 -96 75 -225q1 -129 -118 -160q-39 -10 -168 -10q-248 0 -308 108q-37 33 -36 103zM90 365q0 14 6 30q33 88 127 135q82 39 187 39q160 0 252 -73q100 -80 100 -236q0 -164 -121 -288 t-285 -124q-68 0 -108.5 27t-40.5 74q0 51 43 127t43 92q-94 31 -148.5 89t-54.5 108zM166 731l24 -24q25 -61 220 -62q117 0 141 6q43 10 43 62q0 80 -47 152.5t-123 76.5l-4 -2q-4 -4 -84 -28.5t-121 -65.5q-47 -45 -47 -92q0 -25 -2 -23zM199 375q18 -66 112 -107 q84 -35 84 -100q0 -45 -41 -115.5t-43 -95.5h2q16 -6 43 -6q121 0 212 94t91 215q0 207 -249 207q-166 0 -211 -92z" />
<glyph unicode="&#x3c;" horiz-adv-x="944" d="M4 420q0 133 207 430q137 199 229 280q154 139 324 140q106 0 188 -58q92 -63 92 -165q0 -100 -129 -195q-84 -57 -249 -172q-145 -100 -172 -184q49 -61 211 -138q180 -84 241 -135q117 -96 117 -239q0 -82 -63.5 -132.5t-147.5 -50.5q-137 0 -360 117 q-193 102 -318 215q-170 154 -170 287zM106 420q0 -137 295 -330q285 -186 451 -186q39 0 74 21.5t35 58.5q0 121 -148 204q-92 47 -274 142q-150 80 -150 168q0 78 119 186q59 53 187 136t184 132q63 55 63 95q0 57 -63 92q-51 29 -115 28q-141 0 -275 -131 q-70 -66 -194 -245q-188 -272 -189 -371z" />
<glyph unicode="=" horiz-adv-x="1206" d="M125 727q0 143 88 186q352 176 623 177q123 0 205.5 -66t82.5 -186q0 -84 -55 -131.5t-141 -47.5q-37 0 -113 11.5t-113 11.5q-82 0 -221 -80t-213 -80q-47 0 -94 40t-47 85q0 10 2 19q-4 33 -4 61zM147 342q0 14 14.5 71.5t20.5 63.5q84 74 262 74q68 0 200 -32t200 -32 q39 0 134 54.5t150 54.5q70 0 123.5 -51t53.5 -121q0 -190 -267 -289q-193 -72 -422 -72q-469 0 -469 279zM227 727q0 -14 5.5 -42t5.5 -42q14 -18 30 -18q43 0 187.5 79.5t246.5 79.5q37 0 113 -11t113 -11q94 0 94 76q0 150 -186 149q-244 0 -576 -166q-33 -16 -33 -94z M250 342q-1 -176 366 -176q174 0 347 51q240 72 239 207q0 29 -22.5 49.5t-51.5 20.5q-27 0 -124 -54.5t-160 -54.5q-68 0 -200 32t-200 32q-113 0 -178 -37q0 -10 -8 -34t-8 -36z" />
<glyph unicode="&#x3e;" horiz-adv-x="962" d="M2 -4q0 111 113 211q72 63 232.5 148t225.5 139l2 2q-20 43 -122.5 138t-147.5 118q-20 18 -61 51q-119 72 -148 98q-72 68 -71 160q0 102 100 162q80 47 170 47q176 0 328 -133q92 -80 233 -281q205 -291 205 -426q0 -158 -189 -324q-137 -121 -327 -210 q-201 -94 -328 -95q-90 0 -152.5 53.5t-62.5 141.5zM104 -4q0 -92 113 -92q182 0 457 182q285 188 284 344q0 104 -186 369q-180 256 -281.5 312t-195.5 56q-51 0 -105 -28q-63 -33 -63 -78q0 -68 94 -127q125 -78 141 -96q80 -49 189 -158q129 -129 129 -195 q0 -57 -137 -135q-59 -31 -176 -94q-262 -150 -263 -260z" />
<glyph unicode="@" horiz-adv-x="1257" d="M82 657q0 350 178 605q205 291 553 290q274 0 412 -180q125 -164 125 -444q0 -410 -250 -410q-199 0 -307 98q-74 -102 -172 -102q-102 0 -168 51q-72 55 -72 156q0 145 108.5 267t251.5 134q63 6 154 -98q73 -86 102 -160q6 18 7 39q0 80 -54 170q-23 39 -104 146l-66 2 q-127 4 -272 -193q-137 -186 -137 -319q0 -113 79.5 -200t190.5 -87q106 0 176 43q23 10 94 76q47 43 97 43q92 0 166.5 -83t74.5 -177q0 -176 -163.5 -338t-340.5 -162q-313 0 -501 280q-162 242 -162 553zM184 657q0 -287 144 -495q162 -236 417 -236q135 0 268.5 132 t133.5 266q0 51 -45 104t-94 53q-10 0 -57.5 -45t-108.5 -74q-90 -43 -201 -43q-154 0 -263.5 118t-109.5 272q0 168 166 389q176 236 352 225q98 -6 112.5 -14.5t78.5 -91.5q129 -172 129 -314q0 -158 -113 -158q-66 0 -78 43q-41 160 -176 232q-100 -14 -178 -106.5 t-78 -192.5q0 -104 138 -105q41 0 94 72t71 72t39 -27q82 -113 275 -112q147 0 147 307q0 522 -434 522q-303 0 -477 -254q-152 -223 -152 -539zM543 748q0 43 24 98q31 66 66 65q18 0 37 -18q53 -55 53 -148q0 -82 -51 -96q-14 -2 -31 -2q-41 0 -69.5 30t-28.5 71zM596 821 l82 10q-33 -59 -33 -83l6 2l-28 -17q-2 -6 -2 12q0 49 -25 76z" />
<glyph unicode="A" horiz-adv-x="1370" d="M-4 -117l2 8q18 254 133 631q133 438 277 584q35 96 243 162q166 51 295 51q88 0 135 -66q43 -57 43 -147q0 -43 -10 -129t-10 -129q0 -94 200.5 -364.5t200.5 -346.5q0 -127 -176 -231q-151 -90 -268 -90q-29 0 -43 22q-55 86 -156 215q-41 8 -57 8q-80 0 -121 -108 q-55 -147 -115 -201q-122 -108 -396 -108h-5q-86 0 -135 80q-38 63 -38 138q0 10 1 21zM98 -121q6 -133 70 -133q186 0 266 41q102 51 159.5 214t211.5 163q92 0 141 -47q14 -14 96 -131q14 -23 45 -66q82 10 191 74q125 74 125 143q0 47 -105 185q-170 225 -194 262 q-102 158 -103 264q0 43 10.5 129t10.5 129q0 111 -76 111q-78 0 -237 -41q-193 -49 -207 -109q-2 -12 -15 -27q-121 -111 -245 -534q-96 -326 -144 -627zM547 373q2 35 45 129t66.5 128t56.5 36l8 2h7q59 0 104 -66q39 -57 43 -127q1 -13 1 -24q0 -34 -10 -43 q-96 -100 -252 -113h-5q-29 -1 -47 21q-17 21 -17 51v6zM664 406q78 18 131 73l-13 -53q-2 8 -8 55q-20 59 -39 78l-4 -8q-16 -27 -20 -41q-16 -30 -47 -104z" />
<glyph unicode="B" horiz-adv-x="1179" d="M53 225q0 127 17 217l39 213q-4 10 -5 31q0 29 7.5 85t7.5 85q0 207 80 410q104 264 278 264q831 0 832 -289q0 -172 -60 -287q-55 -106 -194 -217q-88 -70 -88 -119v7q25 -37 96 -90q80 -59 108 -93q51 -57 52 -120q0 -70 -54 -150q-12 -18 -100 -127 q-45 -129 -245.5 -259t-340.5 -130q-219 0 -336 197q-94 158 -94 372zM156 225q0 -182 71 -309q88 -158 256 -158q127 0 267 105q98 74 227 221q8 27 82 111q61 70 61 127q0 35 -128 140t-128 156q0 90 88 166q139 121 164 152q90 119 90 305q0 113 -329 160 q-179 26 -385 26h-15q-117 0 -194 -237q-61 -188 -62 -334q0 -86 -12 -168q4 -10 4 -29q0 -41 -16 -120q-8 -39 -25 -115q-16 -86 -16 -199zM500 371q10 74 24 86q70 61 138 61q94 0 147 -149q10 -29 10 -45q0 -57 -102 -113q-92 -51 -156 -51q-69 0 -69 111q0 40 8 100z M498 817q0 96 47 146q18 18 68 39.5t75 21.5q47 0 82 -38t35 -85q0 -41 -60 -121q-94 -125 -163 -129h-2q-39 0 -64 64q-18 51 -18 102zM594 272q90 31 121 58l-2 6q-12 27 -39 78q-4 2 -12 2q-18 0 -54 -25zM600 817q0 -23 6 -43q78 82 96 129q0 12 -14 19 q-2 0 -34.5 -14.5t-35.5 -16.5q-18 -18 -18 -74z" />
<glyph unicode="C" horiz-adv-x="1269" d="M-12 244q0 827 473 921q47 10 143 33q84 18 144 19q211 0 391 -78q233 -100 233 -289q0 -246 -47 -356q-76 -178 -299 -179h-22q-20 -2 -33 -2h-60q-207 0 -227 129q-9 54 -72 107q-10 -47 -10 -164q0 -94 33 -129q19 -1 40 -1q83 0 197 19q35 6 62 7q253 0 253 -86 q0 -5 -1 -11q-4 -25 -4 -63q0 -37 8 -107.5t8 -107.5q0 -49 -10 -88q-59 -223 -522 -224q-233 0 -455.5 209t-222.5 441zM90 244q0 -188 192.5 -367.5t383.5 -179.5q383 0 421 147q8 31 9 68q0 33 -11 125q-5 53 -5 92q0 19 1 35q-39 14 -147 14q-32 0 -106 -16 q-57 -13 -91 -13q-10 0 -18 1q-33 -4 -59 -4q-56 0 -78 18q-82 66 -82 221q0 125 6 162q18 113 86 119h8q55 0 117 -72q57 -72 67 -135q0 -8 2 -23q19 -18 240 -18q166 0 217 149q27 80 27 283q0 135 -207 209q-154 55 -315 55q-55 0 -134 -18q-66 -14 -131 -31 q-393 -80 -393 -821z" />
<glyph unicode="D" horiz-adv-x="1374" d="M141 1100q0 115 9 125q2 6 14 24q84 127 209 127q268 0 592 -110q410 -139 469 -363q28 -102 28 -242v-10q0 -303 -119 -497q-112 -183 -380 -355q-330 -211 -560 -211q-133 0 -178 117q-20 49 -35 225q-10 119 -28 533q-20 463 -21 637zM246 1188l12 -625 q8 -352 33 -624q16 -176 31 -207q39 -41 81 -41q201 0 503 192.5t380 374.5q51 123 64 209q10 59 10 184q0 133 -25 226q-45 170 -403 292q-303 104 -559 105q-68 0 -127 -86zM512 627q0 59 90 96q20 8 41 8q299 0 361 -227q31 -113 30 -176q0 -78 -116 -148 q-76 -45 -181 -76q-9 -3 -17 -3q-23 0 -38 22q-39 55 -104.5 247.5t-65.5 256.5zM616 612q16 -147 132 -397q154 55 182 107q0 84 -25 155q-31 92 -88 122t-174 30q-11 -5 -27 -17z" />
<glyph unicode="E" horiz-adv-x="1275" d="M74 152q0 186 59.5 552.5t59.5 552.5q0 88 -9 158q-1 6 -1 13q0 74 108 133q98 53 180 53q252 0 356 -17q264 -41 265 -180q0 -121 -136 -178q-121 -37 -239 -76q-4 -20 -4 -39l6 -12l59 -2q41 20 348 20q135 0 195 -26q96 -43 96 -166q0 -23 4 -69t4 -68 q0 -150 -149 -201q-76 -25 -275 -33q-242 -8 -299 -63q2 -14 11 -25q16 -2 35 -2q51 0 148 23.5t148 23.5q98 0 134 -67q24 -47 24 -148v-8q0 -119 -84 -205q-35 -35 -409.5 -149.5t-444.5 -114.5q-190 0 -190 320zM176 152q0 -217 88 -218q47 0 406.5 108t376.5 126 q53 55 53 133q0 68 -2 78q-8 43 -54 43q-49 0 -148 -24.5t-151 -24.5q-102 0 -135 82q-12 31 -12 55q0 90 152 127q82 20 305 37q186 14 233 43q37 23 37 98q0 20 -5 61.5t-5 61.5q0 66 -68 84q-25 6 -121 6q-165 0 -315 -14q-14 -6 -20 -6h-101q-27 0 -53.5 39.5 t-26.5 68.5q0 90 23.5 114.5t116.5 51.5q119 33 120 35q70 25 111 61l4 17q4 16 4 22q0 94 -518 94q-125 0 -184 -100q6 -72 6 -147q0 -186 -58.5 -556t-58.5 -556z" />
<glyph unicode="F" horiz-adv-x="1257" d="M174 1483q0 23 25.5 77t42.5 62q80 37 198 37q281 0 463 -72q266 -104 266 -344q0 -244 -125 -264q-86 -14 -88 -14q-45 -12 -75 -50q-2 -4 -2 -13q0 -23 14 -80q20 -79 37.5 -91t56.5 -12q35 0 105.5 14.5t105.5 14.5q74 0 119 -41t45 -115q0 -197 -162 -232 q-27 -6 -92 -14q-53 -12 -86 -33q2 -12 33 -118q20 -72 20 -123q0 -135 -256 -310q-237 -161 -366 -161h-2q-94 0 -115 43q-47 100 -96 737q-43 555 -43 786q0 53 -11.5 158t-11.5 158zM276 1481q0 -53 11.5 -156.5t11.5 -157.5q0 -207 39 -735q43 -590 84 -723l6 -2 q12 -4 23 -4q100 0 311 141.5t211 227.5q0 47 -27.5 131t-27.5 116q0 84 147 121q33 4 114 21.5t81 134.5q-2 6 -5 16l-6 19q-25 14 -51 14q-37 0 -108.5 -15.5t-108.5 -15.5q-59 0 -109 33q-41 27 -67 113q-25 76 -25 135t23 86q47 55 94 76q29 12 74 14t65 12 q31 27 31 160q0 184 -240 262q-158 51 -387 51q-82 0 -139 -20l-12 -29q-4 -6 -13 -26z" />
<glyph unicode="G" horiz-adv-x="1386" d="M18 997q0 285 84 392q109 137 406 215q229 59 448 59q260 0 261 -457q0 -102 -132 -164q-104 -49 -221 -49q-55 0 -88 41l-49 86q-70 -29 -109 -110q-23 -47 -45 -152q14 -25 160 -149l15 -13q0 25 -27 107t-27 123q0 59 51 71q61 14 254 58q266 57 347 57 q157 0 157 -255q0 -42 -63 -62q-1 0 -99 -29q6 -61 62 -193q53 -121 53 -194q0 -104 -217 -248q-176 -117 -434 -219q-236 -94 -324 -94q-113 0 -198 114q-53 70 -115 224q-53 133 -78 151q-31 25 -51 273q-13 164 -13 250q0 29 1 49q-8 80 -9 118zM121 997q0 -35 8 -114v-9 q-4 -39 -4 -81q0 -82 47 -420q33 -39 86 -166q59 -139 92 -193q59 -94 131 -94q131 0 494 178q379 186 379 281q0 61 -57.5 197.5t-57.5 211.5q0 56 109 89q27 8 51 14q-6 61 -19 108l-14 5q-6 2 -20 6q-102 0 -275 -39q-135 -35 -272 -70q2 -31 26.5 -98.5t24.5 -104.5 q0 -39 -23 -86q-27 -55 -61 -55q-16 0 -37 18q-53 45 -161 137q-98 84 -98 138q0 6 1 12q33 152 74 228q63 117 184 141q5 1 11 1q39 0 77 -64q43 -72 47 -72q59 0 146 28q104 35 104 82q0 354 -158 355q-209 0 -424 -56q-262 -68 -348 -178q-63 -82 -63 -330z" />
<glyph unicode="H" horiz-adv-x="1288" d="M-6 -139q0 147 70.5 433t70.5 433q0 137 37 340l61 336q14 80 138 123q98 35 188 35q156 0 207 -152q29 -86 29 -274q0 -18 4 -39h17q39 0 58 8q20 57 64 168q39 88 158 88q135 0 196 -29q94 -45 94 -168q0 -360 -43 -737q-74 -651 -243 -651q-193 0 -260 71 q-45 47 -60 174q-16 150 -53 218q-2 -2 -39 -45q2 -55 26.5 -170t24.5 -177q0 -143 -61 -165q-158 -59 -438 -60q-246 0 -246 240zM96 -139q0 -137 144 -137q246 0 385 47q12 29 12 75q0 61 -25.5 182.5t-25.5 182.5q0 25 47 80q55 63 104 63q94 0 127 -217 q4 -43 21.5 -150.5t216.5 -107.5q86 68 141 627q41 410 41 657q0 70 -65 86q-31 8 -123 8q-66 0 -86 -67l-39 -129q-41 -68 -154 -68q-20 0 -59 4q-66 6 -66 138q0 152 -10 198q-27 125 -123 125q-143 0 -225 -86l-62 -321q-34 -181 -34 -316v-8q0 -147 -71 -433t-71 -433z " />
<glyph unicode="I" horiz-adv-x="956" d="M143 258v363v106q2 63 93 96q73 19 147 37q201 55 274 55q166 0 222 -59q41 -43 86 -215q49 -184 49 -270q0 -59 -21 -76q-82 -70 -323 -160q-250 -94 -385 -94q-86 0 -119 72q-20 45 -23 145zM174 1135q0 47 18.5 139t18.5 139q0 86 94 137q80 43 172 43q80 0 246 -26 q141 -23 180 -39q92 -41 92 -137v-150q0 -162 -75 -254q-82 -102 -240 -102q-123 0 -268 35q-199 47 -228 133q-10 31 -10 82zM246 258q2 -90 18 -115q12 -2 27 -2q88 0 293 72q229 80 327 149v9q0 66 -41 222.5t-73 205.5q-45 14 -140 14q-51 0 -198 -39q-107 -28 -213 -57 q1 -9 1 -34t-1 -67q-1 -102 -1 -192t1 -166zM276 1135q0 -39 7.5 -51.5t42.5 -28.5q145 -68 354 -68q213 0 213 254v150q0 20 -8 32q-45 25 -205 47q-141 20 -203 21q-43 0 -96 -18q-68 -25 -68 -60q0 -47 -18.5 -139t-18.5 -139z" />
<glyph unicode="J" horiz-adv-x="1271" d="M20 33q18 276 379 276q70 0 101 -41q8 -12 37 -82q20 -53 59 -71q3 -2 8 -2q19 0 58 29q49 34 49 63q0 90 -15 133l-2 4l-123 428q-29 31 -51 104q-20 68 -20 115q0 121 268 121q352 0 455 -104q39 -41 112 -390q70 -334 70 -409q0 -205 -96 -393q-123 -240 -328 -240 h-211q-129 0 -408 64q-205 47 -256 73q-118 62 -118 205q0 70 32 117zM90 -82q0 -18 10 -74q66 -57 318 -114q231 -53 352 -54h211q139 0 236 185q86 164 86 346q0 66 -66 386t-86 341q-74 74 -383 74q-115 0 -166 -27q10 -96 41 -139l25 -35q4 -27 123 -432q22 -53 22 -161 v-9q0 -70 -67.5 -130.5t-137.5 -60.5q-121 0 -192 189q-12 4 -17 4q-133 0 -192 -31q-80 -43 -84 -164q0 -8 -16.5 -38.5t-16.5 -55.5zM387 1380q0 76 4 88q8 23 8 56v18q-2 14 -2 21q0 66 88 84q41 8 156 20q15 1 36 1q70 0 202 -15q193 -23 231 -58q76 -68 76 -221 q0 -272 -234 -272q-29 0 -86 6t-86 6q-39 0 -114.5 -9t-114.5 -9q-68 0 -90 34q-74 115 -74 250zM485 1419q8 -141 54 -219q6 -2 12 -2q39 0 114.5 9.5t114.5 9.5q29 0 86.5 -6.5t85.5 -6.5q86 0 113 47q18 33 18 123q0 109 -41 146q-16 14 -181 32q-134 14 -188 14 q-12 0 -20 -1q-127 -14 -147 -19l-4 -2v-8q0 -20 -8.5 -60t-8.5 -57z" />
<glyph unicode="K" horiz-adv-x="1560" d="M59 508q4 258 13 362q25 295 86 347l6 6q43 31 125 82q141 88 196 88q84 0 131 -117q6 -12 50 -189l2 -8l4 6q135 201 182 242q109 90 297 90q205 0 205 -117q0 -61 -54.5 -153t-54.5 -115q23 -53 146 -162q178 -158 211 -190q108 -112 108 -181q0 -48 -22 -116l-2 -6 q-25 -53 -72 -123q-94 -139 -189 -139q-98 0 -251 80l-244 127q12 -80 12 -119q0 -178 -248 -299q-201 -98 -372 -99q-164 0 -213 222q-10 53 -35 161l6 39l-4 -6v17q0 48 -8 128q-10 96 -11 142zM162 506q0 -43 10 -125t10 -123q0 -29 -4 -55q18 -88 35 -176 q37 -119 111 -119q150 0 325 88q193 96 193 207q0 35 -12.5 102.5t-12.5 97.5q0 47 41 48q51 0 170 -62q66 -35 198 -103.5t201 -68.5q35 0 97 86q43 61 71 117q14 43 15 78q0 41 -121 151q-76 66 -223 201q-121 113 -121 182q0 53 53 140t53 126q-61 16 -100 17 q-164 0 -260 -90q-45 -41 -119 -172q-57 -100 -119 -113q-5 -1 -10 -1q-45 0 -65 83q-4 14 -43 172q-25 96 -52 96q-57 -14 -258 -151q-59 -113 -63 -633z" />
<glyph unicode="L" horiz-adv-x="1126" d="M18 279q2 96 9 167q7 113 30 164q-4 37 68 273q66 215 94 278q10 31 47 103q39 80 56.5 95t78.5 58q100 72 166 72q133 0 226 -55q112 -67 112 -191q0 -115 -66.5 -333t-66.5 -330q0 -2 4 -19l4 -16q29 -23 76 -25q59 -2 78 -8q63 -20 188 -68q131 -53 131 -122 q0 -231 -192 -400q-186 -158 -422 -158q-229 0 -414 130q-207 146 -207 372v13zM121 279v-8q0 -180 170 -298q154 -106 348 -106q190 0 344 125q164 133 168 319q-33 31 -254 105l-12 6q-27 -8 -51 -8q-70 0 -117 48t-47 118q0 113 66.5 330.5t66.5 330.5q0 76 -84 115 q-64 30 -147 30h-5q-49 0 -174 -104q-29 -51 -78 -154l-2 -8q-34 -88 -147 -489q6 -14 -8 -51q-16 -45 -19 -56q-14 -66 -18 -245z" />
<glyph unicode="M" horiz-adv-x="1970" d="M-8 465q0 393 114 786q-2 5 -2 11q0 43 69 156q79 130 118 134q291 37 397 37q217 0 332 -162q92 -129 154 -346l4 -14v-10q-10 -2 -19 -2q-29 0 -39 28q-4 -8 -18 -12q49 106 102 199q197 334 520 334q102 0 179 -87t77 -192q0 -16 -4 -35q29 -65 41 -278 q14 -31 29 -281q12 -225 12 -291q0 -53 -160 -133q-141 -71 -200 -71h-2q-78 0 -156 86q-88 98 -98 102q-66 -45 -90 -209q-31 -203 -60 -258q-60 -117 -233 -117h-6q-115 2 -133 21q-84 82 -119 198q-4 16 -45 217q-27 129 -72 207l-6 2l-45 -221q-41 -129 -162 -129 q-168 0 -301 66q-178 88 -178 264zM94 465q0 -121 135 -182q104 -45 242 -45q55 0 76 98q14 78 28 153q27 104 74 104q4 0 8 -1q27 -4 59 -11.5t42 -21.5q59 -88 106 -319q43 -215 113 -293q18 -1 34 -1q178 0 214 99q20 141 43 283q51 198 169 198h1q55 0 106 -55 q23 -27 71 -80t81 -53q82 0 260 129q-2 184 -33 508q-12 27 -16 131t-29 156q-8 16 -4 36q4 12 4 29q0 59 -48 116.5t-106 57.5q-195 0 -329 -147q-86 -94 -193 -310q-31 -63 -76 -63q-43 0 -51 72q-92 246 -121 290q-92 143 -266 144q-111 0 -362 -33q-43 -57 -113 -176 q4 -16 0 -31q-119 -389 -119 -782z" />
<glyph unicode="N" horiz-adv-x="1849" d="M-12 281q0 233 51 387q10 152 31 245q23 106 59 152q49 61 143 61q213 0 437 -114q105 -54 381 -244q37 39 108 141q66 92 115 133q76 61 170 62q111 0 287 -152.5t176 -261.5q0 -88 -158 -543q-164 -473 -219 -495q-70 -29 -183 -29q-174 0 -292 82q-109 74 -199 232 q-49 90 -150 270q-20 37 -36 55q16 -88 30 -176q18 -102 19 -176q0 -98 -43 -162q-51 -76 -144 -76q-199 0 -354 54q-223 76 -223 239q0 53 -3 157.5t-3 158.5zM96 -35q0 -104 197 -155q133 -35 278 -35q84 0 84 135q0 78 -28.5 228.5t-30.5 223.5q0 27 17.5 42.5t43.5 9.5 q111 -25 207 -207q145 -274 180 -318q130 -163 339 -163h3q95 0 142 20q12 4 162 436q153 437 153 507q0 64 -146.5 188t-213.5 124q-86 0 -158 -90q-4 -6 -119 -163q-63 -88 -116 -89q-25 0 -158 95q-170 119 -287 176q-197 94 -373 94q-6 0 -51 -12q-41 -33 -63 -166 q-16 -96 -17 -187l-2 -12q-18 -104 -43 -340v-342z" />
<glyph unicode="O" horiz-adv-x="1591" d="M2 961q4 139 155.5 286.5t293.5 163.5q10 2 190 35q111 20 193 20q831 0 831 -538q0 -348 -209 -590q-219 -256 -561 -256q-362 0 -631 256q-263 254 -263 593q0 15 1 30zM104 956q-1 -15 -1 -29q0 -297 235 -517q238 -225 557 -226q299 0 489 226q178 213 179 518 q0 436 -729 436q-74 0 -185 -21q-160 -29 -186 -32q-102 -12 -228.5 -133.5t-130.5 -221.5zM437.5 905q17.5 31 72.5 49q14 5 94 7h74q106 0 231 -48q162 -61 162 -155q0 -92 -86 -161t-180 -69q-96 0 -232 82q-153 93 -153 202q0 62 17.5 93zM522 813q0 -57 115 -123 q104 -59 168 -59q49 0 106.5 40t57.5 87q-29 39 -135 71q-94 29 -156 29h-74q-18 0 -43 -2h-29q4 2 11 2l-19 -12q-2 -20 -2 -33z" />
<glyph unicode="P" horiz-adv-x="1437" d="M-2 1139q0 125 129 202q111 66 244 66q168 0 184 -16l41 -56q33 -43 45 -43q66 0 196 30t195 30q256 0 383 -95q147 -106 148 -354q-1 -454 -357 -567q-57 -14 -170.5 -50t-113.5 -110q0 -32 13 -98q11 -57 11 -91v-10v-57q-2 -49 -22 -67q-47 -41 -148 -66 q-86 -23 -164 -23q-215 0 -327 322q-129 373 -224 721q-63 236 -63 332zM100 1139q0 -78 62 -305q96 -354 219 -713q88 -254 231 -254q141 0 230 51v13q0 44 -10 118q-12 86 -13 127q0 154 201 213q52 14 154 43q129 41 196 127q90 117 90 344q0 203 -117 283 q-96 63 -311 63q-66 0 -195.5 -29.5t-195.5 -29.5q-47 0 -82 33q-8 6 -55 69l-6 8q-20 0 -63.5 2.5t-63.5 2.5q-141 0 -258 -113l-7 -27q-6 -27 -6 -26zM535 610q0 47 32 135q35 96 66 117q57 39 153 39q111 0 154 -74q20 -34 49 -161q4 -18 4 -37q0 -80 -164 -135 q-129 -43 -219 -45q-39 0 -59 63q-16 49 -16 98zM637 610q0 -27 8 -55q187 31 244 80v8q-8 51 -35 131q-14 25 -68 25q-68 0 -96 -21q-8 -6 -30.5 -78.5t-22.5 -89.5z" />
<glyph unicode="Q" horiz-adv-x="1437" d="M2 774q0 262 201 518q215 274 483 291q55 4 203 21q123 14 203 14q147 0 264 -70q143 -86 143 -243q0 -98 -41 -189q-27 -57 -96.5 -155.5t-93.5 -151.5q23 -2 61 0q47 4 62 4q43 0 91 -28.5t48 -67.5q0 -219 -39 -340q-72 -225 -272 -225q-84 0 -212 92t-139 92 q-61 -45 -116 -80q-154 -96 -275 -96q-246 0 -373 205q-102 166 -102 409zM104 774q0 -207 82 -344q98 -168 291 -168q88 0 232.5 88t158.5 88q53 0 175 -92t176 -92q206 0 208 442l-6 4q-23 10 -30 11h-54q-72 -2 -55 -2q-131 0 -131 65q0 47 49 125q45 63 129 191 q68 106 68 215q0 102 -107 161q-88 49 -198 50q-80 0 -199 -15q-147 -18 -201 -20q-223 -12 -409 -250q-178 -227 -179 -457zM371 815q0 293 338 469q27 14 53 14q115 0 115 -159q0 -78 -25 -154q-31 -97 -83 -97q-7 0 -13 1q-23 4 -86.5 34.5t-81.5 30.5q-15 0 -35 -51 q51 -145 51 -229q0 -47 -43 -47q-16 0 -51 10t-45 12q-94 18 -94 166zM451 901q0 31 26 78q45 78 111 78q43 0 153 -56l7 -2q26 47 26 134v6q0 41 -10 55q-12 -4 -33 -16q-258 -154 -258 -363q0 -47 6 -63q2 0 6 -2l11 -2q-4 18 -27 79q-18 53 -18 74z" />
<glyph unicode="R" horiz-adv-x="1685" d="M49 899q-1 7 -1 14q0 87 157 174q121 68 235 97q133 33 385 57q231 23 392 23q246 0 368 -86q147 -104 148 -340q0 -146 -193 -361q43 -29 129 -86q72 -51 72 -135q0 -90 -74 -170q-35 -37 -156 -129q-100 -76 -133 -131q-20 -33 -123 -33q-76 0 -271.5 124t-262.5 128 q-4 -92 -6 -182q-14 -88 -117 -144q-94 -51 -197 -51q-282 0 -282 481q0 277 -70 750zM154 897q67 -464 67 -737v-8q0 -156 23 -238q39 -143 157 -143q70 0 136 30q79 39 79 99q0 19 -2 57q-2 37 -2 55q0 86 54 117q31 18 47 18q96 0 297.5 -125.5t244.5 -125.5q14 0 50 6 q18 25 194 172q139 117 139 182q0 27 -107.5 105.5t-107.5 119.5q0 20 17 39q190 203 190 318q0 190 -117 266q-92 57 -296 57q-55 0 -322 -22q-311 -27 -403 -47q-254 -57 -338 -195zM543 563q0 156 293 156q66 0 116 -29q63 -35 64 -94q0 -96 -121 -221t-215 -125 q-76 0 -113 123q-24 79 -24 182v8zM645 563q0 -154 41 -211q53 8 140 100.5t87 143.5q-18 20 -77 20q-190 0 -191 -53z" />
<glyph unicode="S" horiz-adv-x="1464" d="M27 381q0 133 55 231q68 119 192 119q106 0 152 -12q84 -23 100 -101q2 -10 13 -28q84 33 125 74q-242 37 -396 116q-212 111 -212 281q0 12 1 24v9q0 209 408 366q313 121 559 121h184q113 0 187 -55q82 -61 82 -170q0 -57 -25 -78q-33 -29 -182 -68q-141 -37 -156 -59 q45 -27 209 -86q129 -47 182 -100q78 -78 78 -220q0 -342 -385 -499q-270 -111 -639 -111q-532 0 -532 246zM129 381q0 -143 430 -143q354 0 600 102q322 135 322 405q0 115 -86 175q-35 23 -191 79q-127 47 -182 111q-14 16 -14 39q0 106 213 156q111 25 147 41v13 q0 70 -41 95q-35 25 -119 25h-184q-219 0 -508 -115q-326 -129 -356 -283q4 -145 225 -237q166 -70 356 -86q47 -4 47 -51q0 -70 -92 -148t-164 -78q-16 0 -28 6q-51 33 -80 123q-23 18 -150 19q-76 0 -114 -92q-31 -70 -31 -156z" />
<glyph unicode="T" horiz-adv-x="1400" d="M-2 897q0 135 98 201q68 45 217 71q14 2 144 35q113 29 139 29q811 0 877 -86q53 -70 53 -88q-8 -281 -174 -328l-70 -20q-22 -12 -22 -65q0 -61 16 -177q16 -115 16 -172v-147q0 -297 -288 -297q-160 0 -359 114q-223 131 -223 279q0 66 50 190.5t50 192.5q0 23 -6 37 q-25 4 -37 4q-49 0 -141 -28t-141 -28q-96 0 -152 99q-47 82 -47 184zM100 897q0 -53 23 -111q29 -69 73 -69h1q49 0 141 27.5t141 27.5q80 0 113 -31.5t33 -111.5q0 -74 -50.5 -206t-50.5 -177q0 -98 193 -199q174 -92 287 -92q104 0 145 44t41 151v147q0 57 -16.5 172 t-16.5 172q0 102 47 141q20 20 90 39.5t90 50.5q33 51 39 172l-22 29q-172 55 -805 55q-53 -16 -203 -41q-131 -23 -194 -49q-98 -41 -99 -141z" />
<glyph unicode="U" horiz-adv-x="1439" d="M43 631q0 150 68 358q94 295 106 350q39 45 80 99q54 71 123 71h2q168 0 330 -53q223 -74 223 -211q-1 -61 -29 -187q-27 -118 -26 -183v-9l2 -71h4q15 -2 29 -2q59 0 92 28q0 53 -35 154.5t-35 154.5q0 90 55 156t144 66q348 0 348 -254q0 -227 -56 -512 q-74 -375 -192 -475q-84 -70 -248 -70q-66 0 -325 47t-320 70q-186 70 -263 174t-77 299zM145 631q0 -164 58.5 -242t214.5 -135q55 -20 304 -65.5t306 -45.5q98 0 148 27q57 29 98 111q51 109 92 323q55 293 55 494q0 151 -242 151h-3q-43 0 -70 -36.5t-27 -82.5 q0 -53 36 -153t36 -154q0 -72 -82 -106q-57 -25 -143 -25q-80 0 -99 45q-6 16 -10 127v9q1 67 27 185q28 126 28 187q0 76 -198 125q-150 37 -252 37q-18 0 -55 -45q-47 -57 -54 -64q-8 -41 -102 -329q-66 -201 -66 -338z" />
<glyph unicode="V" horiz-adv-x="1507" d="M6 858q0 106 102.5 224t208.5 118q80 0 152 -86q37 -45 117 -182q70 -121 112 -160q55 78 80 189q39 172 45 192q51 147 234 199q108 30 308 30h13q145 0 203.5 -55t58.5 -201q0 -160 -77 -340q-47 -100 -138 -305q-62 -144 -62 -271q0 -19 1 -38l12 -174 q0 -76 -87 -144.5t-252 -128t-265 -59.5q-113 0 -280 223q-152 203 -179 326q-307 565 -307 643zM109 854q25 -86 165 -344q137 -250 140 -272q10 -82 147 -273q142 -196 210 -196h1q84 0 234 53q76 27 151 69q117 64 117 107t-6 128t-6 128q0 109 86 301q43 92 125 276 q65 150 65 291q0 86 -31 135q-72 23 -129 23q-231 0 -315 -31q-131 -47 -164 -217q-23 -119 -61 -219q-61 -162 -127 -162q-82 0 -232 258q-111 188 -162 189q-61 0 -134.5 -90t-73.5 -154z" />
<glyph unicode="W" horiz-adv-x="1794" d="M-14 1090q0 33 22 114q27 96 51 107q64 26 140 26h6q104 0 162 -151q23 -59 55 -234l8 -8q27 37 37 111q12 94 20 116q41 121 224 164q102 23 295 23q166 0 254 -246q24 -69 59 -178q25 84 82 248q57 149 182 149h2q319 0 320 -182q0 -133 -99 -588q-106 -487 -172 -551 q-116 -110 -457 -110h-6q-133 0 -190 65q-31 35 -61.5 148.5t-67.5 154.5q-53 -4 -100 -92q-74 -135 -93 -160q-68 -84 -176 -84q-434 0 -434 519q0 106 -31.5 319t-31.5 320zM88 1090q0 -106 32 -319.5t32 -319.5q0 -416 331 -416q68 0 133 98q43 78 86 158q62 80 161 80 h14q53 -2 98 -111q16 -51 49.5 -154.5t146.5 -103.5q303 0 392 82q45 43 143 498q96 449 96 567q0 80 -217 80q-61 0 -100 -113q-20 -68 -64 -205q-31 -95 -81 -95q-6 0 -11 1q-76 16 -96 49q-6 23 -37 117q-39 125 -63 170q-53 102 -127 102q-203 0 -261 -12 q-156 -33 -172 -162q-10 -88 -26 -133q-23 -66 -80 -112q-10 -10 -27 -11q-31 0 -70.5 30t-45.5 58q-10 59 -35 177q-35 145 -84 145q-45 0 -82 -10q0 -8 -21 -68q-14 -43 -14 -67z" />
<glyph unicode="X" horiz-adv-x="1640" d="M41 1081q0 102 184.5 288.5t286.5 186.5q94 0 137 -116q25 -80 80 -238q53 -141 162 -186q66 63 122 228t109 216q96 94 318 94q72 0 117 -56t45 -130q0 -70 -104.5 -217.5t-108.5 -202.5q49 -45 167.5 -115.5t169.5 -119.5q82 -80 82 -166q0 -129 -170 -316.5 t-297 -187.5q-74 0 -149 61q-39 31 -111 113q-53 59 -69 59q-37 0 -86 -104q-70 -147 -111 -197q-88 -106 -207 -106q-123 0 -329 149q-219 160 -220 289q0 82 82 142q143 82 144 83q94 63 94 119q0 100 -88 162q-55 35 -164 102q-86 68 -86 166zM143 1081q0 -57 86 -110 q141 -86 164 -109q88 -82 88 -211q0 -96 -82 -164q-23 -18 -155 -94q-82 -47 -82 -86q0 -80 182 -211q176 -125 264 -125q90 0 156 107q33 66 100 196q59 104 148 105q49 0 102 -47q8 -6 78 -86q88 -100 149 -101q84 0 224.5 158t140.5 244q0 68 -109 141q-68 43 -202 127 q-111 72 -111 121q0 88 107.5 244.5t107.5 187.5t-15.5 57.5t-43.5 26.5q-182 0 -262 -94q-35 -43 -97 -213q-53 -150 -145 -227q-23 -18 -47 -11q-166 51 -232 209q-37 98 -108 295q-16 43 -37 43q-59 0 -214 -155.5t-155 -217.5z" />
<glyph unicode="Y" horiz-adv-x="1394" d="M16 1309q0 133 105 223q98 88 233 88q127 0 181 -86q31 -49 50 -184.5t52 -184.5l61 187q102 307 242 307q152 0 373 -176q233 -184 233 -340q0 -78 -100 -156q-25 -18 -225 -133q-174 -98 -191 -127q0 -68 160 -260.5t160 -267.5q0 -168 -334 -293q-268 -100 -459 -101 q-219 0 -248 45q-78 119 -78 283q0 98 61.5 287.5t61.5 288.5q0 63 -88 165q-147 172 -162 191q-88 127 -88 244zM119 1309q0 -102 88 -211q55 -61 162 -187q88 -104 88 -202t-61.5 -288t-61.5 -288q0 -121 49 -207q117 -18 174 -18q123 0 381 84q309 100 309 207 q0 43 -82 139q-129 154 -153 186q-84 117 -84 205q0 78 190 189l264 151q61 47 62 74q0 109 -199 264q-189 149 -303 149h-2q-57 0 -106 -135q-29 -84 -84 -252q-45 -135 -95 -135q-8 0 -16 2q-96 41 -127 166q-12 70 -41 211q-25 104 -117 105q-92 0 -163.5 -59.5 t-71.5 -149.5z" />
<glyph unicode="Z" horiz-adv-x="1433" d="M-6 59q0 233 174 428q74 82 356 299q27 20 74 70q0 33 -23 76q-66 -4 -83 -8q-51 -12 -52 -54v-28q0 -55 -30 -99q-33 -49 -86 -49q-135 0 -185 31q-76 47 -76 188q0 127 9 185q16 121 106 190q68 55 199 86q113 25 227 47q360 78 492 78q190 0 311 -248q94 -195 94 -381 q0 -74 -162 -182q-35 -25 -215 -127q-70 -39 -170 -98q-125 -80 -151 -127q78 -50 203 -60l-5 17q-6 25 -6 41q0 256 222 256q150 0 182 -156q8 -43 26 -129q57 -246 58 -293q0 -225 -477 -225q-406 0 -566 20q-446 57 -446 252zM96 59q0 -170 910 -170q374 0 374 122 q0 97 -53 261q-8 45 -27 134q-18 81 -81 81h-2q-119 0 -119 -153q0 -14 7 -45t7 -47q0 -66 -88 -68h-8q-79 0 -185 37q-135 47 -135 115q0 80 150 186q78 55 301 182q190 109 235 158q6 8 17 18q0 170 -84 338q-94 188 -219 189q-117 0 -471 -76q-371 -80 -406 -121 q-41 -49 -51 -137q-2 -18 -2 -150q0 -86 37 -104q23 -12 121 -12q8 12 18 94q8 70 49 100q56 43 200 43h13q41 0 72 -71q27 -61 26 -109q0 -63 -157 -180q-215 -158 -291 -242q-158 -174 -158 -373z" />
<glyph unicode="[" horiz-adv-x="811" d="M23 483q0 854 176 983q53 39 196 54q70 6 207 16q88 4 191 -27q127 -37 127 -106q0 -72 -29 -170q-18 -63 -35 -129q-27 -63 -94 -70q-289 -31 -289 -176q0 -332 53 -524q25 4 84 10q51 6 84 6q96 0 164 -86q61 -78 62 -178q0 -100 -277 -250q-254 -137 -348 -137 q-154 0 -225 342q-47 223 -47 442zM125 483q0 -131 39 -366q51 -315 131 -316q68 0 295 122t227 163q0 55 -34.5 108.5t-88.5 53.5q-35 0 -103.5 -8.5t-103.5 -8.5q-117 0 -116 627q0 190 211 240l172 37q33 100 39 127q22 78 24 129q-78 45 -211 43q-35 0 -177 -14.5 t-171 -35.5q-133 -98 -133 -901z" />
<glyph unicode="]" horiz-adv-x="878" d="M25 1403q0 61 96 108q88 43 147 39q84 -4 249 -22.5t226 -59.5q176 -117 177 -874q0 -285 -35 -500q-63 -395 -232 -395q-98 0 -350 135q-276 147 -276 252q0 104 67.5 186t169.5 82q31 0 78 -8q62 -10 76 -12q57 195 57 522q0 90 -92 129q-37 16 -176 41q-98 18 -109 53 q-25 80 -47 160q-27 94 -26 164zM127 1397q0 -53 61 -260q215 -49 256 -68q133 -63 134 -213q0 -621 -134 -625q-31 0 -91 10.5t-89 10.5q-57 0 -96 -53.5t-39 -112.5q0 -47 227.5 -166t296.5 -119q90 0 135 367q29 233 29 426q0 219 -18 407q-33 330 -111 381 q-49 33 -424 66q-92 -6 -137 -51z" />
<glyph unicode="a" horiz-adv-x="1370" d="M-4 -117l2 8q18 254 133 631q133 438 277 584q35 96 243 162q166 51 295 51q88 0 135 -66q43 -57 43 -147q0 -43 -10 -129t-10 -129q0 -94 200.5 -364.5t200.5 -346.5q0 -127 -176 -231q-151 -90 -268 -90q-29 0 -43 22q-55 86 -156 215q-41 8 -57 8q-80 0 -121 -108 q-55 -147 -115 -201q-122 -108 -396 -108h-5q-86 0 -135 80q-38 63 -38 138q0 10 1 21zM98 -121q6 -133 70 -133q186 0 266 41q102 51 159.5 214t211.5 163q92 0 141 -47q14 -14 96 -131q14 -23 45 -66q82 10 191 74q125 74 125 143q0 47 -105 185q-170 225 -194 262 q-102 158 -103 264q0 43 10.5 129t10.5 129q0 111 -76 111q-78 0 -237 -41q-193 -49 -207 -109q-2 -12 -15 -27q-121 -111 -245 -534q-96 -326 -144 -627zM547 373q2 35 45 129t66.5 128t56.5 36l8 2h7q59 0 104 -66q39 -57 43 -127q1 -13 1 -24q0 -34 -10 -43 q-96 -100 -252 -113h-5q-29 -1 -47 21q-17 21 -17 51v6zM664 406q78 18 131 73l-13 -53q-2 8 -8 55q-20 59 -39 78l-4 -8q-16 -27 -20 -41q-16 -30 -47 -104z" />
<glyph unicode="b" horiz-adv-x="1179" d="M53 225q0 127 17 217l39 213q-4 10 -5 31q0 29 7.5 85t7.5 85q0 207 80 410q104 264 278 264q831 0 832 -289q0 -172 -60 -287q-55 -106 -194 -217q-88 -70 -88 -119v7q25 -37 96 -90q80 -59 108 -93q51 -57 52 -120q0 -70 -54 -150q-12 -18 -100 -127 q-45 -129 -245.5 -259t-340.5 -130q-219 0 -336 197q-94 158 -94 372zM156 225q0 -182 71 -309q88 -158 256 -158q127 0 267 105q98 74 227 221q8 27 82 111q61 70 61 127q0 35 -128 140t-128 156q0 90 88 166q139 121 164 152q90 119 90 305q0 113 -329 160 q-179 26 -385 26h-15q-117 0 -194 -237q-61 -188 -62 -334q0 -86 -12 -168q4 -10 4 -29q0 -41 -16 -120q-8 -39 -25 -115q-16 -86 -16 -199zM500 371q10 74 24 86q70 61 138 61q94 0 147 -149q10 -29 10 -45q0 -57 -102 -113q-92 -51 -156 -51q-69 0 -69 111q0 40 8 100z M498 817q0 96 47 146q18 18 68 39.5t75 21.5q47 0 82 -38t35 -85q0 -41 -60 -121q-94 -125 -163 -129h-2q-39 0 -64 64q-18 51 -18 102zM594 272q90 31 121 58l-2 6q-12 27 -39 78q-4 2 -12 2q-18 0 -54 -25zM600 817q0 -23 6 -43q78 82 96 129q0 12 -14 19 q-2 0 -34.5 -14.5t-35.5 -16.5q-18 -18 -18 -74z" />
<glyph unicode="c" horiz-adv-x="1269" d="M-12 244q0 827 473 921q47 10 143 33q84 18 144 19q211 0 391 -78q233 -100 233 -289q0 -246 -47 -356q-76 -178 -299 -179h-22q-20 -2 -33 -2h-60q-207 0 -227 129q-9 54 -72 107q-10 -47 -10 -164q0 -94 33 -129q19 -1 40 -1q84 0 197 19q35 6 62 7q253 0 253 -86 q0 -5 -1 -11q-4 -25 -4 -63q0 -37 8 -107.5t8 -107.5q0 -49 -10 -88q-59 -223 -522 -224q-233 0 -455.5 209t-222.5 441zM90 244q0 -188 192.5 -367.5t383.5 -179.5q383 0 421 147q8 31 9 68q0 33 -11 125q-5 53 -5 92q0 19 1 35q-39 14 -147 14q-32 0 -106 -16 q-57 -13 -91 -13q-10 0 -18 1q-33 -4 -59 -4q-56 0 -78 18q-82 66 -82 221q0 125 6 162q18 113 86 119h8q55 0 117 -72q57 -72 67 -135q0 -8 2 -23q19 -18 240 -18q166 0 217 149q27 80 27 283q0 135 -207 209q-154 55 -315 55q-55 0 -134 -18q-66 -14 -131 -31 q-393 -80 -393 -821z" />
<glyph unicode="d" horiz-adv-x="1374" d="M141 1100q0 115 9 125q2 6 14 24q84 127 209 127q268 0 592 -110q410 -139 469 -363q28 -102 28 -242v-10q0 -303 -119 -497q-112 -183 -380 -355q-330 -211 -560 -211q-133 0 -178 117q-20 49 -35 225q-10 119 -28 533q-20 463 -21 637zM246 1188l12 -625 q8 -352 33 -624q16 -176 31 -207q39 -41 81 -41q201 0 503 192.5t380 374.5q51 123 64 209q10 59 10 184q0 133 -25 226q-45 170 -403 292q-303 104 -559 105q-68 0 -127 -86zM512 627q0 59 90 96q20 8 41 8q299 0 361 -227q31 -113 30 -176q0 -78 -116 -148 q-76 -45 -181 -76q-9 -3 -17 -3q-23 0 -38 22q-39 55 -104.5 247.5t-65.5 256.5zM616 612q16 -147 132 -397q154 55 182 107q0 84 -25 155q-31 92 -88 122t-174 30q-11 -5 -27 -17z" />
<glyph unicode="e" horiz-adv-x="1275" d="M74 152q0 186 59.5 552.5t59.5 552.5q0 88 -9 158q-1 6 -1 13q0 74 108 133q98 53 180 53q252 0 356 -17q264 -41 265 -180q0 -121 -136 -178q-121 -37 -239 -76q-4 -20 -4 -39l6 -12l59 -2q41 20 348 20q135 0 195 -26q96 -43 96 -166q0 -23 4 -69t4 -68 q0 -150 -149 -201q-76 -25 -275 -33q-242 -8 -299 -63q2 -14 11 -25q16 -2 35 -2q51 0 148 23.5t148 23.5q98 0 134 -67q24 -47 24 -148v-8q0 -119 -84 -205q-35 -35 -409.5 -149.5t-444.5 -114.5q-190 0 -190 320zM176 152q0 -217 88 -218q47 0 406.5 108t376.5 126 q53 55 53 133q0 68 -2 78q-8 43 -54 43q-49 0 -148 -24.5t-151 -24.5q-102 0 -135 82q-12 31 -12 55q0 90 152 127q82 20 305 37q186 14 233 43q37 23 37 98q0 20 -5 61.5t-5 61.5q0 66 -68 84q-25 6 -121 6q-165 0 -315 -14q-14 -6 -20 -6h-101q-27 0 -53.5 39.5 t-26.5 68.5q0 90 23.5 114.5t116.5 51.5q119 33 120 35q70 25 111 61l4 17q4 16 4 22q0 94 -518 94q-125 0 -184 -100q6 -72 6 -147q0 -186 -58.5 -556t-58.5 -556z" />
<glyph unicode="f" horiz-adv-x="1257" d="M174 1483q0 23 25.5 77t42.5 62q80 37 198 37q281 0 463 -72q266 -104 266 -344q0 -244 -125 -264q-86 -14 -88 -14q-45 -12 -75 -50q-2 -4 -2 -13q0 -24 14 -80q20 -79 37.5 -91t56.5 -12q35 0 105.5 14.5t105.5 14.5q74 0 119 -41t45 -115q0 -197 -162 -232 q-27 -6 -92 -14q-53 -12 -86 -33q2 -12 33 -118q20 -72 20 -123q0 -135 -256 -310q-237 -161 -366 -161h-2q-94 0 -115 43q-47 100 -96 737q-43 555 -43 786q0 53 -11.5 158t-11.5 158zM276 1481q0 -53 11.5 -156.5t11.5 -157.5q0 -207 39 -735q43 -590 84 -723l6 -2 q12 -4 23 -4q100 0 311 141.5t211 227.5q0 47 -27.5 131t-27.5 116q0 84 147 121q33 4 114 21.5t81 134.5q-2 6 -5 16l-6 19q-25 14 -51 14q-37 0 -108.5 -15.5t-108.5 -15.5q-59 0 -109 33q-41 27 -67 113q-25 76 -25 135t23 86q47 55 94 76q29 12 74 14t65 12 q31 27 31 160q0 184 -240 262q-158 51 -387 51q-82 0 -139 -20l-12 -29q-4 -6 -13 -26z" />
<glyph unicode="g" horiz-adv-x="1386" d="M18 997q0 285 84 392q109 137 406 215q229 59 448 59q260 0 261 -457q0 -102 -132 -164q-104 -49 -221 -49q-55 0 -88 41l-49 86q-70 -29 -109 -110q-23 -47 -45 -152q14 -25 160 -149l15 -13q0 25 -27 107t-27 123q0 59 51 71q61 14 254 58q266 57 347 57 q157 0 157 -255q0 -42 -63 -62q-1 0 -99 -29q6 -61 62 -193q53 -121 53 -194q0 -104 -217 -248q-176 -117 -434 -219q-236 -94 -324 -94q-113 0 -198 114q-53 70 -115 224q-53 133 -78 151q-31 25 -51 273q-13 164 -13 250q0 29 1 49q-8 80 -9 118zM121 997q0 -35 8 -114v-9 q-4 -39 -4 -81q0 -82 47 -420q33 -39 86 -166q59 -139 92 -193q59 -94 131 -94q131 0 494 178q379 186 379 281q0 61 -57.5 197.5t-57.5 211.5q0 56 109 89q27 8 51 14q-6 61 -19 108l-14 5q-6 2 -20 6q-102 0 -275 -39q-135 -35 -272 -70q2 -31 26.5 -98.5t24.5 -104.5 q0 -39 -23 -86q-27 -55 -61 -55q-16 0 -37 18q-53 45 -161 137q-98 84 -98 138q0 6 1 12q33 152 74 228q63 117 184 141q5 1 11 1q39 0 77 -64q43 -72 47 -72q59 0 146 28q104 35 104 82q0 354 -158 355q-209 0 -424 -56q-262 -68 -348 -178q-63 -82 -63 -330z" />
<glyph unicode="h" horiz-adv-x="1288" d="M-6 -139q0 147 70.5 433t70.5 433q0 137 37 340l61 336q14 80 138 123q98 35 188 35q156 0 207 -152q29 -86 29 -274q0 -18 4 -39h17q39 0 58 8q20 57 64 168q39 88 158 88q135 0 196 -29q94 -45 94 -168q0 -360 -43 -737q-74 -651 -243 -651q-193 0 -260 71 q-45 47 -60 174q-16 150 -53 218q-2 -2 -39 -45q2 -55 26.5 -170t24.5 -177q0 -143 -61 -165q-158 -59 -438 -60q-246 0 -246 240zM96 -139q0 -137 144 -137q246 0 385 47q12 29 12 75q0 61 -25.5 182.5t-25.5 182.5q0 25 47 80q55 63 104 63q94 0 127 -217 q4 -43 21.5 -150.5t216.5 -107.5q86 68 141 627q41 410 41 657q0 70 -65 86q-31 8 -123 8q-66 0 -86 -67l-39 -129q-41 -68 -154 -68q-20 0 -59 4q-66 6 -66 138q0 152 -10 198q-27 125 -123 125q-143 0 -225 -86l-62 -321q-34 -181 -34 -316v-8q0 -147 -71 -433t-71 -433z " />
<glyph unicode="i" horiz-adv-x="956" d="M143 258v363v106q2 63 93 96q73 19 147 37q201 55 274 55q166 0 222 -59q41 -43 86 -215q49 -184 49 -270q0 -59 -21 -76q-82 -70 -323 -160q-250 -94 -385 -94q-86 0 -119 72q-20 45 -23 145zM174 1135q0 47 18.5 139t18.5 139q0 86 94 137q80 43 172 43q80 0 246 -26 q141 -23 180 -39q92 -41 92 -137v-150q0 -162 -75 -254q-82 -102 -240 -102q-123 0 -268 35q-199 47 -228 133q-10 31 -10 82zM246 258q2 -90 18 -115q12 -2 27 -2q88 0 293 72q229 80 327 149v9q0 66 -41 222.5t-73 205.5q-45 14 -140 14q-51 0 -198 -39q-107 -28 -213 -57 q1 -9 1 -34t-1 -67q-1 -102 -1 -192t1 -166zM276 1135q0 -39 7.5 -51.5t42.5 -28.5q145 -68 354 -68q213 0 213 254v150q0 20 -8 32q-45 25 -205 47q-141 20 -203 21q-43 0 -96 -18q-68 -25 -68 -60q0 -47 -18.5 -139t-18.5 -139z" />
<glyph unicode="j" horiz-adv-x="1271" d="M20 33q18 276 379 276q70 0 101 -41q8 -12 37 -82q20 -53 59 -71q3 -2 8 -2q19 0 58 29q49 34 49 63q0 90 -15 133l-2 4l-123 428q-29 31 -51 104q-20 68 -20 115q0 121 268 121q352 0 455 -104q39 -41 112 -390q70 -334 70 -409q0 -205 -96 -393q-123 -240 -328 -240 h-211q-129 0 -408 64q-205 47 -256 73q-118 62 -118 205q0 70 32 117zM90 -82q0 -18 10 -74q66 -57 318 -114q231 -53 352 -54h211q139 0 236 185q86 164 86 346q0 66 -66 386t-86 341q-74 74 -383 74q-115 0 -166 -27q10 -96 41 -139l25 -35q4 -27 123 -432q22 -53 22 -161 v-9q0 -70 -67.5 -130.5t-137.5 -60.5q-121 0 -192 189q-12 4 -17 4q-133 0 -192 -31q-80 -43 -84 -164q0 -8 -16.5 -38.5t-16.5 -55.5zM387 1380q0 76 4 88q8 23 8 56v18q-2 14 -2 21q0 66 88 84q41 8 156 20q15 1 36 1q70 0 202 -15q193 -23 231 -58q76 -68 76 -221 q0 -272 -234 -272q-29 0 -86 6t-86 6q-39 0 -114.5 -9t-114.5 -9q-68 0 -90 34q-74 115 -74 250zM485 1419q8 -141 54 -219q6 -2 12 -2q39 0 114.5 9.5t114.5 9.5q29 0 86.5 -6.5t85.5 -6.5q86 0 113 47q18 33 18 123q0 109 -41 146q-16 14 -181 32q-134 14 -188 14 q-12 0 -20 -1q-127 -14 -147 -19l-4 -2v-8q0 -20 -8.5 -60t-8.5 -57z" />
<glyph unicode="k" horiz-adv-x="1560" d="M59 508q4 258 13 362q25 295 86 347l6 6q43 31 125 82q141 88 196 88q84 0 131 -117q6 -12 50 -189l2 -8l4 6q135 201 182 242q109 90 297 90q205 0 205 -117q0 -61 -54.5 -153t-54.5 -115q23 -53 146 -162q178 -158 211 -190q108 -112 108 -181q0 -48 -22 -116l-2 -6 q-25 -53 -72 -123q-94 -139 -189 -139q-98 0 -251 80l-244 127q12 -80 12 -119q0 -178 -248 -299q-201 -98 -372 -99q-164 0 -213 222q-10 53 -35 161l6 39l-4 -6v17q0 48 -8 128q-10 96 -11 142zM162 506q0 -43 10 -125t10 -123q0 -29 -4 -55q18 -88 35 -176 q37 -119 111 -119q150 0 325 88q193 96 193 207q0 35 -12.5 102.5t-12.5 97.5q0 47 41 48q51 0 170 -62q66 -35 198 -103.5t201 -68.5q35 0 97 86q43 61 71 117q14 43 15 78q0 41 -121 151q-76 66 -223 201q-121 113 -121 182q0 53 53 140t53 126q-61 16 -100 17 q-164 0 -260 -90q-45 -41 -119 -172q-57 -100 -119 -113q-5 -1 -10 -1q-45 0 -65 83q-4 14 -43 172q-25 96 -52 96q-57 -14 -258 -151q-59 -113 -63 -633z" />
<glyph unicode="l" horiz-adv-x="1126" d="M18 279q2 96 9 167q7 113 30 164q-4 37 68 273q66 215 94 278q10 31 47 103q39 80 56.5 95t78.5 58q100 72 166 72q133 0 226 -55q112 -67 112 -191q0 -115 -66.5 -333t-66.5 -330q0 -2 4 -19l4 -16q29 -23 76 -25q59 -2 78 -8q63 -20 188 -68q131 -53 131 -122 q0 -231 -192 -400q-186 -158 -422 -158q-229 0 -414 130q-207 146 -207 372v13zM121 279v-8q0 -180 170 -298q154 -106 348 -106q190 0 344 125q164 133 168 319q-33 31 -254 105l-12 6q-27 -8 -51 -8q-70 0 -117 48t-47 118q0 113 66.5 330.5t66.5 330.5q0 76 -84 115 q-64 30 -147 30h-5q-49 0 -174 -104q-29 -51 -78 -154l-2 -8q-34 -90 -147 -489q6 -14 -8 -51q-16 -45 -19 -56q-14 -66 -18 -245z" />
<glyph unicode="m" horiz-adv-x="1970" d="M-8 465q0 393 114 786q-2 5 -2 11q0 43 69 156q79 130 118 134q291 37 397 37q217 0 332 -162q92 -129 154 -346l4 -14v-10q-10 -2 -19 -2q-29 0 -39 28q-4 -8 -18 -12q49 106 102 199q197 334 520 334q102 0 179 -87t77 -192q0 -16 -4 -35q29 -65 41 -278 q14 -31 29 -281q12 -225 12 -291q0 -53 -160 -133q-141 -71 -200 -71h-2q-78 0 -156 86q-88 98 -98 102q-66 -45 -90 -209q-31 -203 -60 -258q-60 -117 -233 -117h-6q-115 2 -133 21q-84 82 -119 198q-4 16 -45 217q-27 129 -72 207l-6 2l-45 -221q-41 -129 -162 -129 q-168 0 -301 66q-178 88 -178 264zM94 465q0 -121 135 -182q104 -45 242 -45q55 0 76 98q14 78 28 153q27 104 74 104q4 0 8 -1q27 -4 59 -11.5t42 -21.5q59 -88 106 -319q43 -215 113 -293q18 -1 34 -1q178 0 214 99q20 141 43 283q51 198 169 198h1q55 0 106 -55 q23 -27 71 -80t81 -53q82 0 260 129q-2 184 -33 508q-12 27 -16 131t-29 156q-8 16 -4 36q4 12 4 29q0 59 -48 116.5t-106 57.5q-195 0 -329 -147q-86 -94 -193 -310q-31 -63 -76 -63q-43 0 -51 72q-92 246 -121 290q-92 143 -266 144q-111 0 -362 -33q-43 -57 -113 -176 q4 -16 0 -31q-119 -389 -119 -782z" />
<glyph unicode="n" horiz-adv-x="1849" d="M-12 281q0 233 51 387q10 152 31 245q23 106 59 152q49 61 143 61q213 0 437 -114q105 -54 381 -244q37 39 108 141q66 92 115 133q76 61 170 62q111 0 287 -152.5t176 -261.5q0 -88 -158 -543q-164 -473 -219 -495q-70 -29 -183 -29q-174 0 -292 82q-109 74 -199 232 q-49 90 -150 270q-20 37 -36 55q16 -88 30 -176q18 -102 19 -176q0 -98 -43 -162q-51 -76 -144 -76q-199 0 -354 54q-223 76 -223 239q0 53 -3 157.5t-3 158.5zM96 -35q0 -104 197 -155q133 -35 278 -35q84 0 84 135q0 78 -28.5 228.5t-30.5 223.5q0 27 17.5 42.5t43.5 9.5 q111 -25 207 -207q145 -274 180 -318q130 -163 339 -163h3q95 0 142 20q12 4 162 436q153 437 153 507q0 64 -146.5 188t-213.5 124q-86 0 -158 -90q-4 -6 -119 -163q-63 -88 -116 -89q-25 0 -158 95q-170 119 -287 176q-197 94 -373 94q-6 0 -51 -12q-41 -33 -63 -166 q-16 -96 -17 -187l-2 -12q-18 -104 -43 -340v-342z" />
<glyph unicode="o" horiz-adv-x="1591" d="M2 961q4 139 155.5 286.5t293.5 163.5q10 2 190 35q111 20 193 20q831 0 831 -538q0 -348 -209 -590q-219 -256 -561 -256q-362 0 -631 256q-263 254 -263 593q0 15 1 30zM104 956q-1 -15 -1 -29q0 -297 235 -517q238 -225 557 -226q299 0 489 226q178 213 179 518 q0 436 -729 436q-74 0 -185 -21q-160 -29 -186 -32q-102 -12 -228.5 -133.5t-130.5 -221.5zM437.5 905q17.5 31 72.5 49q14 5 94 7h74q106 0 231 -48q162 -61 162 -155q0 -92 -86 -161t-180 -69q-96 0 -232 82q-153 93 -153 202q0 62 17.5 93zM522 813q0 -57 115 -123 q104 -59 168 -59q49 0 106.5 40t57.5 87q-29 39 -135 71q-94 29 -156 29h-74q-18 0 -43 -2h-29q4 2 11 2l-19 -12q-2 -20 -2 -33z" />
<glyph unicode="p" horiz-adv-x="1437" d="M-2 1139q0 125 129 202q111 66 244 66q168 0 184 -16l41 -56q33 -43 45 -43q66 0 196 30t195 30q256 0 383 -95q147 -106 148 -354q-1 -454 -357 -567q-57 -14 -170.5 -50t-113.5 -110q0 -33 13 -98q11 -57 11 -91v-10v-57q-2 -49 -22 -67q-47 -41 -148 -66 q-86 -23 -164 -23q-215 0 -327 322q-129 373 -224 721q-63 236 -63 332zM100 1139q0 -78 62 -305q96 -354 219 -713q88 -254 231 -254q141 0 230 51v13q0 44 -10 118q-13 86 -13 127q0 154 201 213q52 14 154 43q129 41 196 127q90 117 90 344q0 203 -117 283 q-96 63 -311 63q-66 0 -195.5 -29.5t-195.5 -29.5q-47 0 -82 33q-8 6 -55 69l-6 8q-20 0 -63.5 2.5t-63.5 2.5q-141 0 -258 -113l-7 -27q-6 -27 -6 -26zM535 610q0 47 32 135q35 96 66 117q57 39 153 39q111 0 154 -74q20 -34 49 -161q4 -18 4 -37q0 -80 -164 -135 q-129 -43 -219 -45q-39 0 -59 63q-16 49 -16 98zM637 610q0 -27 8 -55q187 31 244 80v8q-8 51 -35 131q-14 25 -68 25q-68 0 -96 -21q-8 -6 -30.5 -78.5t-22.5 -89.5z" />
<glyph unicode="q" horiz-adv-x="1437" d="M2 774q0 262 201 518q215 274 483 291q55 4 203 21q123 14 203 14q147 0 264 -70q143 -86 143 -243q0 -98 -41 -189q-27 -57 -96.5 -155.5t-93.5 -151.5q23 -2 61 0q47 4 62 4q43 0 91 -28.5t48 -67.5q0 -219 -39 -340q-72 -225 -272 -225q-84 0 -212 92t-139 92 q-61 -45 -116 -80q-154 -96 -275 -96q-246 0 -373 205q-102 166 -102 409zM104 774q0 -207 82 -344q98 -168 291 -168q88 0 232.5 88t158.5 88q53 0 175 -92t176 -92q206 0 208 442l-6 4q-23 10 -30 11h-54q-72 -2 -55 -2q-131 0 -131 65q0 47 49 125q45 63 129 191 q68 106 68 215q0 102 -107 161q-88 49 -198 50q-80 0 -199 -15q-147 -18 -201 -20q-223 -12 -409 -250q-178 -227 -179 -457zM371 815q0 293 338 469q27 14 53 14q115 0 115 -159q0 -78 -25 -154q-31 -97 -83 -97q-7 0 -13 1q-23 4 -86.5 34.5t-81.5 30.5q-15 0 -35 -51 q51 -145 51 -229q0 -47 -43 -47q-16 0 -51 10t-45 12q-94 18 -94 166zM451 901q0 31 26 78q45 78 111 78q43 0 153 -56l7 -2q26 47 26 134v6q0 41 -10 55q-12 -4 -33 -16q-258 -154 -258 -363q0 -47 6 -63q2 0 6 -2l11 -2q-4 18 -27 79q-18 53 -18 74z" />
<glyph unicode="r" horiz-adv-x="1685" d="M49 899q-1 7 -1 14q0 87 157 174q121 68 235 97q133 33 385 57q231 23 392 23q246 0 368 -86q147 -104 148 -340q0 -146 -193 -361q43 -29 129 -86q72 -51 72 -135q0 -90 -74 -170q-35 -37 -156 -129q-100 -76 -133 -131q-20 -33 -123 -33q-76 0 -271.5 124t-262.5 128 q-4 -92 -6 -182q-14 -88 -117 -144q-94 -51 -197 -51q-282 0 -282 481q0 277 -70 750zM154 897q67 -464 67 -737v-8q0 -156 23 -238q39 -143 157 -143q70 0 136 30q79 39 79 99q0 19 -2 57q-2 37 -2 55q0 86 54 117q31 18 47 18q96 0 297.5 -125.5t244.5 -125.5q14 0 50 6 q18 25 194 172q139 117 139 182q0 27 -107.5 105.5t-107.5 119.5q0 20 17 39q190 203 190 318q0 190 -117 266q-92 57 -296 57q-55 0 -322 -22q-311 -27 -403 -47q-254 -57 -338 -195zM543 563q0 156 293 156q66 0 116 -29q63 -35 64 -94q0 -96 -121 -221t-215 -125 q-76 0 -113 123q-24 79 -24 182v8zM645 563q0 -154 41 -211q53 8 140 100.5t87 143.5q-18 20 -77 20q-190 0 -191 -53z" />
<glyph unicode="s" horiz-adv-x="1464" d="M27 381q0 133 55 231q68 119 192 119q106 0 152 -12q84 -23 100 -101q2 -10 13 -28q84 33 125 74q-242 37 -396 116q-212 111 -212 281q0 12 1 24v9q0 209 408 366q313 121 559 121h184q113 0 187 -55q82 -61 82 -170q0 -57 -25 -78q-33 -29 -182 -68q-141 -37 -156 -59 q45 -27 209 -86q129 -47 182 -100q78 -78 78 -220q0 -342 -385 -499q-270 -111 -639 -111q-532 0 -532 246zM129 381q0 -143 430 -143q354 0 600 102q322 135 322 405q0 115 -86 175q-35 23 -191 79q-127 47 -182 111q-14 16 -14 39q0 106 213 156q111 25 147 41v13 q0 70 -41 95q-35 25 -119 25h-184q-219 0 -508 -115q-326 -129 -356 -283q4 -145 225 -237q166 -70 356 -86q47 -4 47 -51q0 -70 -92 -148t-164 -78q-16 0 -28 6q-51 33 -80 123q-23 18 -150 19q-76 0 -114 -92q-31 -70 -31 -156z" />
<glyph unicode="t" horiz-adv-x="1400" d="M-2 897q0 135 98 201q68 45 217 71q14 2 144 35q113 29 139 29q811 0 877 -86q53 -70 53 -88q-8 -281 -174 -328l-70 -20q-22 -12 -22 -65q0 -61 16 -177q16 -115 16 -172v-147q0 -297 -288 -297q-160 0 -359 114q-223 131 -223 279q0 66 50 190.5t50 192.5q0 23 -6 37 q-25 4 -37 4q-49 0 -141 -28t-141 -28q-96 0 -152 99q-47 82 -47 184zM100 897q0 -53 23 -111q29 -69 73 -69h1q49 0 141 27.5t141 27.5q80 0 113 -31.5t33 -111.5q0 -74 -50.5 -206t-50.5 -177q0 -98 193 -199q174 -92 287 -92q104 0 145 44t41 151v147q0 57 -16.5 172 t-16.5 172q0 102 47 141q20 20 90 39.5t90 50.5q33 51 39 172l-22 29q-172 55 -805 55q-53 -16 -203 -41q-131 -23 -194 -49q-98 -41 -99 -141z" />
<glyph unicode="u" horiz-adv-x="1439" d="M43 631q0 150 68 358q94 295 106 350q39 45 80 99q54 71 123 71h2q168 0 330 -53q223 -74 223 -211q-1 -61 -29 -187q-27 -118 -26 -183v-9l2 -71h4q15 -2 29 -2q59 0 92 28q0 53 -35 154.5t-35 154.5q0 90 55 156t144 66q348 0 348 -254q0 -227 -56 -512 q-74 -375 -192 -475q-84 -70 -248 -70q-66 0 -325 47t-320 70q-186 70 -263 174t-77 299zM145 631q0 -164 58.5 -242t214.5 -135q55 -20 304 -65.5t306 -45.5q98 0 148 27q57 29 98 111q51 109 92 323q55 293 55 494q0 151 -242 151h-3q-43 0 -70 -36.5t-27 -82.5 q0 -53 36 -153t36 -154q0 -72 -82 -106q-57 -25 -143 -25q-80 0 -99 45q-6 16 -10 127v9q1 67 27 185q28 126 28 187q0 76 -198 125q-150 37 -252 37q-18 0 -55 -45q-47 -57 -54 -64q-8 -41 -102 -329q-66 -201 -66 -338z" />
<glyph unicode="v" horiz-adv-x="1507" d="M6 858q0 106 102.5 224t208.5 118q80 0 152 -86q37 -45 117 -182q70 -121 112 -160q55 78 80 189q39 172 45 192q51 147 234 199q108 30 308 30h13q145 0 203.5 -55t58.5 -201q0 -160 -77 -340q-47 -100 -138 -305q-62 -144 -62 -271q0 -19 1 -38l12 -174 q0 -76 -87 -144.5t-252 -128t-265 -59.5q-113 0 -280 223q-152 203 -179 326q-307 565 -307 643zM109 854q25 -86 165 -344q137 -250 140 -272q10 -82 147 -273q142 -196 210 -196h1q84 0 234 53q76 27 151 69q117 64 117 107t-6 128t-6 128q0 109 86 301q43 92 125 276 q65 150 65 291q0 86 -31 135q-72 23 -129 23q-233 0 -315 -31q-131 -49 -164 -217q-25 -121 -61 -219q-61 -162 -127 -162q-82 0 -232 258q-111 188 -162 189q-61 0 -134.5 -90t-73.5 -154z" />
<glyph unicode="w" horiz-adv-x="1794" d="M-14 1090q0 33 22 114q27 96 51 107q64 26 140 26h6q104 0 162 -151q23 -59 55 -234l8 -8q27 37 37 111q12 94 20 116q41 121 224 164q102 23 295 23q166 0 254 -246q24 -69 59 -178q25 84 82 248q57 149 182 149h2q319 0 320 -182q0 -133 -99 -588q-106 -487 -172 -551 q-116 -110 -457 -110h-6q-133 0 -190 65q-31 35 -61.5 148.5t-67.5 154.5q-53 -4 -100 -92q-74 -135 -93 -160q-68 -84 -176 -84q-434 0 -434 519q0 106 -31.5 319t-31.5 320zM88 1090q0 -106 32 -319.5t32 -319.5q0 -416 331 -416q68 0 133 98q43 78 86 158q62 80 161 80 h14q53 -2 98 -111q16 -51 49.5 -154.5t146.5 -103.5q303 0 392 82q45 43 143 498q96 449 96 567q0 80 -217 80q-61 0 -100 -113q-20 -68 -64 -205q-31 -95 -81 -95q-6 0 -11 1q-76 16 -96 49q-6 23 -37 117q-39 125 -63 170q-53 102 -127 102q-203 0 -261 -12 q-156 -33 -172 -162q-10 -88 -26 -133q-23 -66 -80 -112q-10 -10 -27 -11q-31 0 -70.5 30t-45.5 58q-10 59 -35 177q-35 145 -84 145q-45 0 -82 -10q0 -8 -21 -68q-14 -43 -14 -67z" />
<glyph unicode="x" horiz-adv-x="1640" d="M41 1081q0 102 184.5 288.5t286.5 186.5q94 0 137 -116q25 -80 80 -238q53 -141 162 -186q66 63 122 228t109 216q96 94 318 94q72 0 117 -56t45 -130q0 -70 -104.5 -217.5t-108.5 -202.5q49 -45 167.5 -115.5t169.5 -119.5q82 -80 82 -166q0 -129 -170 -316.5 t-297 -187.5q-74 0 -149 61q-39 31 -111 113q-53 59 -69 59q-37 0 -86 -104q-70 -147 -111 -197q-88 -106 -207 -106q-123 0 -329 149q-219 160 -220 289q0 82 82 142q143 82 144 83q94 63 94 119q0 100 -88 162q-55 35 -164 102q-86 68 -86 166zM143 1081q0 -57 86 -110 q141 -86 164 -109q88 -82 88 -211q0 -96 -82 -164q-23 -18 -155 -94q-82 -47 -82 -86q0 -80 182 -211q176 -125 264 -125q90 0 156 107q33 66 100 196q59 104 148 105q49 0 102 -47q8 -6 78 -86q88 -100 149 -101q84 0 224.5 158t140.5 244q0 68 -109 141q-68 43 -202 127 q-111 72 -111 121q0 88 107.5 244.5t107.5 187.5t-15.5 57.5t-43.5 26.5q-182 0 -262 -94q-35 -43 -97 -213q-53 -150 -145 -227q-23 -18 -47 -11q-166 51 -232 209q-37 98 -108 295q-16 43 -37 43q-59 0 -214 -155.5t-155 -217.5z" />
<glyph unicode="y" horiz-adv-x="1394" d="M16 1309q0 133 105 223q98 88 233 88q127 0 181 -86q31 -49 50 -184.5t52 -184.5l61 187q102 307 242 307q152 0 373 -176q233 -184 233 -340q0 -78 -100 -156q-25 -18 -225 -133q-174 -98 -191 -127q0 -68 160 -260.5t160 -267.5q0 -168 -334 -293q-268 -100 -459 -101 q-219 0 -248 45q-78 119 -78 283q0 98 61.5 287.5t61.5 288.5q0 63 -88 165q-147 172 -162 191q-88 127 -88 244zM119 1309q0 -102 88 -211q55 -61 162 -187q88 -104 88 -202t-61.5 -288t-61.5 -288q0 -121 49 -207q117 -18 174 -18q123 0 381 84q309 100 309 207 q0 43 -82 139q-129 154 -153 186q-84 117 -84 205q0 78 190 189l264 151q61 47 62 74q0 109 -199 264q-189 149 -303 149h-2q-57 0 -106 -135q-29 -84 -84 -252q-45 -135 -95 -135q-8 0 -16 2q-96 41 -127 166q-12 70 -41 211q-25 104 -117 105q-92 0 -163.5 -59.5 t-71.5 -149.5z" />
<glyph unicode="z" horiz-adv-x="1433" d="M-6 59q0 233 174 428q74 82 356 299q27 20 74 70q0 33 -23 76q-66 -4 -83 -8q-51 -12 -52 -54v-28q0 -55 -30 -99q-33 -49 -86 -49q-135 0 -185 31q-76 47 -76 188q0 127 9 185q16 121 106 190q68 55 199 86q113 25 227 47q360 78 492 78q193 0 311 -246q94 -195 94 -383 q0 -74 -162 -182q-35 -25 -215 -127q-70 -39 -170 -98q-125 -80 -151 -127q78 -50 203 -60l-5 17q-6 25 -6 41q0 256 222 256q150 0 182 -156q8 -43 26 -129q57 -246 58 -293q0 -225 -477 -225q-406 0 -566 20q-446 57 -446 252zM96 59q0 -170 910 -170q374 0 374 122 q0 97 -53 261q-8 45 -27 134q-18 81 -81 81h-2q-119 0 -119 -153q0 -14 7 -45t7 -47q0 -66 -88 -68h-8q-79 0 -185 37q-135 47 -135 115q0 80 150 186q78 55 301 182q190 109 235 158q6 8 17 18q0 170 -84 338q-94 188 -219 189q-117 0 -471 -76q-371 -80 -406 -121 q-41 -49 -51 -137q-2 -18 -2 -150q0 -86 37 -104q23 -12 121 -12q8 12 18 94q8 70 49 100q56 43 200 43h13q41 0 72 -71q27 -61 26 -109q0 -63 -157 -180q-215 -158 -291 -242q-158 -174 -158 -373z" />
<glyph unicode="&#xad;" d="M127 637q0 90 28.5 127t116.5 67.5t238 67.5q170 41 229 41q150 0 244 -99.5t94 -250.5q0 -109 -66 -179.5t-175 -70.5q-27 0 -80.5 9t-79.5 9q-49 0 -144.5 -22.5t-144.5 -22.5q-186 0 -213 131q-47 80 -47 193zM229 637q0 -18 11.5 -74.5t19.5 -64.5q12 -27 27 -54 q23 -29 100 -28q49 0 144.5 22.5t144.5 22.5q27 0 80 -9.5t80 -9.5q139 0 139 148q0 106 -64.5 177t-171.5 71q-59 0 -252.5 -49t-242.5 -78q-14 -33 -15 -74z" />
<glyph unicode="&#x2000;" horiz-adv-x="834" />
<glyph unicode="&#x2001;" horiz-adv-x="1668" />
<glyph unicode="&#x2002;" horiz-adv-x="834" />
<glyph unicode="&#x2003;" horiz-adv-x="1668" />
<glyph unicode="&#x2004;" horiz-adv-x="556" />
<glyph unicode="&#x2005;" horiz-adv-x="417" />
<glyph unicode="&#x2006;" horiz-adv-x="278" />
<glyph unicode="&#x2007;" horiz-adv-x="278" />
<glyph unicode="&#x2008;" horiz-adv-x="208" />
<glyph unicode="&#x2009;" horiz-adv-x="333" />
<glyph unicode="&#x200a;" horiz-adv-x="92" />
<glyph unicode="&#x2010;" d="M127 637q0 90 28.5 127t116.5 67.5t238 67.5q170 41 229 41q150 0 244 -99.5t94 -250.5q0 -109 -66 -179.5t-175 -70.5q-27 0 -80.5 9t-79.5 9q-49 0 -144.5 -22.5t-144.5 -22.5q-186 0 -213 131q-47 80 -47 193zM229 637q0 -18 11.5 -74.5t19.5 -64.5q12 -27 27 -54 q23 -29 100 -28q49 0 144.5 22.5t144.5 22.5q27 0 80 -9.5t80 -9.5q139 0 139 148q0 106 -64.5 177t-171.5 71q-59 0 -252.5 -49t-242.5 -78q-14 -33 -15 -74z" />
<glyph unicode="&#x2011;" d="M127 637q0 90 28.5 127t116.5 67.5t238 67.5q170 41 229 41q150 0 244 -99.5t94 -250.5q0 -109 -66 -179.5t-175 -70.5q-27 0 -80.5 9t-79.5 9q-49 0 -144.5 -22.5t-144.5 -22.5q-186 0 -213 131q-47 80 -47 193zM229 637q0 -18 11.5 -74.5t19.5 -64.5q12 -27 27 -54 q23 -29 100 -28q49 0 144.5 22.5t144.5 22.5q27 0 80 -9.5t80 -9.5q139 0 139 148q0 106 -64.5 177t-171.5 71q-59 0 -252.5 -49t-242.5 -78q-14 -33 -15 -74z" />
<glyph unicode="&#x2012;" d="M127 637q0 90 28.5 127t116.5 67.5t238 67.5q170 41 229 41q150 0 244 -99.5t94 -250.5q0 -109 -66 -179.5t-175 -70.5q-27 0 -80.5 9t-79.5 9q-49 0 -144.5 -22.5t-144.5 -22.5q-186 0 -213 131q-47 80 -47 193zM229 637q0 -18 11.5 -74.5t19.5 -64.5q12 -27 27 -54 q23 -29 100 -28q49 0 144.5 22.5t144.5 22.5q27 0 80 -9.5t80 -9.5q139 0 139 148q0 106 -64.5 177t-171.5 71q-59 0 -252.5 -49t-242.5 -78q-14 -33 -15 -74z" />
<glyph unicode="&#x2013;" horiz-adv-x="1095" d="M127 637q0 90 30.5 127t125.5 67.5t257 67.5q183 41 247 41q161 0 262.5 -99.5t101.5 -250.5q0 -109 -71 -179.5t-189 -70.5q-29 0 -86.5 9t-85.5 9q-53 0 -156 -22.5t-156 -22.5q-200 0 -229 131q-51 80 -51 193zM237 637q0 -18 12.5 -74.5t20.5 -64.5q13 -27 29 -54 q25 -29 108 -28q53 0 156 22.5t156 22.5q29 0 86 -9.5t86 -9.5q150 0 150 148q0 106 -69.5 177t-184.5 71q-64 0 -272.5 -49t-261.5 -78q-15 -33 -16 -74z" />
<glyph unicode="&#x2014;" horiz-adv-x="2119" d="M127 637q0 90 61.5 127t251 67.5t513.5 67.5q366 41 493 41q324 0 526.5 -99.5t202.5 -250.5q0 -109 -142.5 -179.5t-377.5 -70.5q-58 0 -173 9t-171 9q-106 0 -312 -22.5t-311 -22.5q-401 0 -460 131q-101 80 -101 193zM347 637q0 -18 24.5 -74.5t42.5 -64.5 q26 -27 58 -54q50 -29 216 -28q105 0 311 22.5t312 22.5q58 0 172 -9.5t172 -9.5q300 0 300 148q0 106 -139 177t-370 71q-127 0 -544 -49t-523 -78q-30 -33 -32 -74z" />
<glyph unicode="&#x202f;" horiz-adv-x="333" />
<glyph unicode="&#x205f;" horiz-adv-x="417" />
<glyph unicode="&#xe000;" horiz-adv-x="1556" d="M0 0v1556h1556v-1556h-1556z" />
</font>
</defs>
</svg>
